<?xml version="1.0" standalone="no"?>
<!DOCTYPE svg PUBLIC "-//W3C//DTD SVG 1.1//EN" "http://www.w3.org/Graphics/SVG/1.1/DTD/svg11.dtd" >
<!--
2013-9-30: Created.
-->
<svg>
<metadata>
Created by iconfont
</metadata>
<defs>

<font id="iconfont" horiz-adv-x="1024" >
  <font-face
    font-family="iconfont"
    font-weight="500"
    font-stretch="normal"
    units-per-em="1024"
    ascent="896"
    descent="-128"
  />
    <missing-glyph />
    
    <glyph glyph-name="x" unicode="x" horiz-adv-x="1001"
d="M281 543q-27 -1 -53 -1h-83q-18 0 -36.5 -6t-32.5 -18.5t-23 -32t-9 -45.5v-76h912v41q0 16 -0.5 30t-0.5 18q0 13 -5 29t-17 29.5t-31.5 22.5t-49.5 9h-133v-97h-438v97zM955 310v-52q0 -23 0.5 -52t0.5 -58t-10.5 -47.5t-26 -30t-33 -16t-31.5 -4.5q-14 -1 -29.5 -0.5
t-29.5 0.5h-32l-45 128h-439l-44 -128h-29h-34q-20 0 -45 1q-25 0 -41 9.5t-25.5 23t-13.5 29.5t-4 30v167h911zM163 247q-12 0 -21 -8.5t-9 -21.5t9 -21.5t21 -8.5q13 0 22 8.5t9 21.5t-9 21.5t-22 8.5zM316 123q-8 -26 -14 -48q-5 -19 -10.5 -37t-7.5 -25t-3 -15t1 -14.5
t9.5 -10.5t21.5 -4h37h67h81h80h64h36q23 0 34 12t2 38q-5 13 -9.5 30.5t-9.5 34.5q-5 19 -11 39h-368zM336 498v228q0 11 2.5 23t10 21.5t20.5 15.5t34 6h188q31 0 51.5 -14.5t20.5 -52.5v-227h-327z" />
    

    
    <glyph glyph-name="socialgithuboutline" unicode="&#59508;" d="M512 748C264.6 748 64 542.2 64 288.6c0-203 128.4-375 306.4-435.8 2.8-0.6 5.2-0.8 7.6-0.8 16.6 0 23 12.2 23 22.8 0 11-0.4 39.8-0.6 78.2-16.8-3.8-31.8-5.4-45.2-5.4-86.2 0-105.8 67-105.8 67-20.4 53-49.8 67.2-49.8 67.2-39 27.4-0.2 28.2 2.8 28.2 0.2 0 0.2 0 0.2 0 45-4 68.6-47.6 68.6-47.6 22.4-39.2 52.4-50.2 79.2-50.2 21 0 40 6.8 51.2 12 4 29.6 15.6 49.8 28.4 61.4-99.4 11.6-204 51-204 227 0 50.2 17.4 91.2 46 123.2-4.6 11.6-20 58.4 4.4 121.6 0 0 3.2 1 10 1 16.2 0 52.8-6.2 113.2-48.2 35.8 10.2 74 15.2 112.2 15.4 38-0.2 76.4-5.2 112.2-15.4 60.4 42 97 48.2 113.2 48.2 6.8 0 10-1 10-1 24.4-63.2 9-110 4.4-121.6 28.6-32.2 46-73.2 46-123.2 0-176.4-104.8-215.2-204.6-226.6 16-14.2 30.4-42.2 30.4-85 0-61.4-0.6-111-0.6-126 0-10.8 6.2-23 22.8-23 2.4 0 5.2 0.2 8 0.8C831.8-86.4 960 85.8 960 288.6 960 542.2 759.4 748 512 748zM355.2-84.2c4.4 0 8.8 0.2 13.4 0.4 0-5.6 0-11 0.2-15.8 0-4.8 0-9.2 0.2-13-31.2 11.6-60.6 27-88.2 46C300.4-77.2 325-84.2 355.2-84.2zM378 61.6c-1.6-4.4-3-9-4.2-13.8-6.8-2-15-3.6-23.4-3.6-21.8 0-38 10.8-51.2 33.8-4.8 9.2-13.6 21.4-25.8 32.6C307 82.4 346 68.8 378 61.6zM758-56.2c-31.6-23.8-66-42.6-102-56.4 0 3.8 0 8.2 0 13 0 23.8 0 59.6 0 100.8 0 24.8-4.2 45-10 61 74.4 16.6 184 67.4 184 250.8 0 49.2-14.2 93-42.4 130.2 6.2 25.8 11 71.2-10.2 126l-5.4 14.2-14.4 4.8c-3 1-9.6 2.6-20 2.6-23 0-61.8-8.2-119-45.6-34 8.4-69.6 12.8-106.2 12.8L512 558l-0.2 0c-36.6 0-72.4-4.4-106.2-12.8-57.2 37.4-96 45.6-119 45.6-10.4 0-17-1.8-20-2.8l-14.4-4.8-5.4-14.2c-21.2-55-16.4-100.4-10.2-126-28.2-37.4-42.4-81.2-42.4-130.2 0-99.2 32-159.8 73.2-197-16.2 13.2-37.2 24.2-62.4 26L204 141.8l-1 0-0.6 0c-26.2 0-44.6-10.8-50.4-29.4-9.4-29.6 19.6-50 29.2-56.8l1-1.2 3-1.2c3.2-2 20.2-14 33.8-49 4-12.4 12.6-29 27.2-44.4-26.2 22.4-49.6 48-69.8 76.2C123.8 109.6 96 197 96 288.6c0 57.8 11 113.8 32.8 166.6 21 51 51 96.6 89.4 135.8 38.2 39.2 82.8 70 132.2 91.4C401.6 704.6 456 716 512 716s110.4-11.2 161.6-33.4c49.6-21.4 94-52.2 132.2-91.4 38.2-39.2 68.4-85 89.4-135.8 21.8-52.8 32.8-108.8 32.8-166.6 0-91.6-27.6-179-80.2-252.6C822.6 0.8 792.4-30.2 758-56.2z"  horiz-adv-x="1024" />

    
    <glyph glyph-name="thumbsdown" unicode="&#60647;" d="M182.880895 566.880651q0-14.84694-10.82437-25.744447t-25.744447-10.82437q-15.432041 0-25.96386 10.82437t-10.604957 25.744447q0 15.432041 10.604957 25.96386t25.96386 10.604957q14.84694 0 25.744447-10.604957t10.82437-25.96386zM274.302936 274.330119l0 365.688165q0 14.84694-10.82437 25.744447t-25.744447 10.82437l-164.559674 0q-14.84694 0-25.744447-10.82437t-10.82437-25.744447l0-365.688165q0-14.84694 10.82437-25.744447t25.744447-10.82437l164.559674 0q14.84694 0 25.744447 10.82437t10.82437 25.744447zM919.37686 359.462324q31.449182-34.886651 31.449182-85.132205-0.585101-44.540819-32.838797-77.160203t-76.867652-32.546247l-158.269838 0q2.267267-7.972002 4.534533-13.676737t6.289836-12.579673 5.704735-10.312406q10.312406-21.136776 15.432041-32.546247t10.82437-33.423898 5.704735-43.736305q0-13.676737-0.292551-22.306978t-2.852368-25.744447-6.874938-28.596815-13.676737-25.744447-22.818942-23.111492-34.30155-14.84694-47.173773-5.997286q-14.84694 0-25.744447 10.82437-11.409471 11.409471-19.45461 28.596815t-11.11692 29.693879-7.167488 34.886651q-5.119634 23.989144-7.679451 34.5941t-10.019856 27.719163-17.699307 27.426612q-18.869509 18.869509-57.705592 68.529962-28.011713 36.568817-57.705592 69.115063t-43.443754 33.716449q-14.261838 1.170202-24.574245 11.702021t-10.312406 24.866795l0 366.273266q0 14.84694 10.82437 25.451896t25.744447 11.11692q19.966574 0.585101 90.251839 25.159346 44.028855 14.84694 68.822513 22.599529t69.407614 16.602243 82.279837 8.849654l73.722734 0q75.990001-1.170202 112.558817-44.540819 33.131348-39.421184 28.011713-103.416613 22.306978-21.136776 30.864081-53.683023 9.727305-34.886651 0-66.847797 26.25641-34.886651 24.574245-78.257267 0-18.284408-8.557103-43.443754z"  horiz-adv-x="1024" />

    
    <glyph glyph-name="book" unicode="&#58903;" d="M1022.273608 767.217394 1190.121722 767.217394 1190.121722-170.991693 1022.273608-170.991693 1022.273608 767.217394 1022.273608 767.217394 1022.273608 767.217394ZM982.784809-170.991693C982.784809-194.109348 999.167189-210.49173 1022.272203-210.49173L1190.121722-210.491729C1213.239378-210.491729 1229.624568-194.109348 1229.624568-170.991692L1229.624568 767.217394C1229.624568 789.97546 1222.757257 796.845582 1200.002001 796.845582L1012.401758 796.845582C989.652122 796.845582 982.784809 789.974055 982.784809 767.217394L982.784809-170.991693 982.784809-170.991693ZM765.563404 767.217394 933.411518 767.217394 933.411518-170.991693 765.563404-170.991693 765.563404 767.217394 765.563404 767.217394 765.563404 767.217394ZM726.067581-170.991693C726.067581-194.109348 742.451366-210.49173 765.563404-210.49173L933.411518-210.49173C956.529175-210.49173 972.911557-194.10935 972.911557-170.991693L972.911557 767.217394C972.911557 789.97546 966.037219 796.845582 943.281963 796.845582L755.690152 796.845582C732.940513 796.845582 726.066178 789.974055 726.066178 767.217394L726.066178-170.991693 726.067581-170.991693ZM503.90885 767.217394 671.761179 767.217394 671.761179-170.991693 503.90885-170.991693 503.90885 767.217394 503.90885 767.217394 503.90885 767.217394ZM464.414431-170.991693C464.414431-194.109348 480.798216-210.49173 503.90885-210.49173L671.761179-210.49173C694.874618-210.49173 711.25981-194.10935 711.25981-170.991693L711.25981 767.217394C711.25981 789.97546 704.385473 796.845582 681.631621 796.845582L494.037 796.845582C471.288766 796.845582 464.414431 789.974055 464.414431 767.217394L464.414431-170.991693 464.414431-170.991693ZM538.468747 500.569324C538.468747 486.729351 551.93368 480.820009 568.091316 480.820009L607.58714 480.820009C623.748989 480.820009 637.201281 486.730756 637.201281 500.569324 637.201281 514.409296 623.748991 520.324258 607.58714 520.324258L568.091316 520.324258C551.932275 520.324258 538.468747 514.409296 538.468747 500.569324L538.468747 500.569324ZM538.468747 401.810102C538.468747 387.97013 551.93368 382.057978 568.091316 382.057978L607.58714 382.057978C623.748989 382.057978 637.201281 387.97013 637.201281 401.810102 637.201281 415.650075 623.748991 421.563632 607.58714 421.563632L568.091316 421.563632C551.932275 421.562229 538.468747 415.64867 538.468747 401.810102L538.468747 401.810102ZM538.468747 307.986807C538.468747 294.148239 551.93368 288.23749 568.091316 288.23749L607.58714 288.23749C623.748989 288.23749 637.201281 294.148239 637.201281 307.986807 637.201281 321.826779 623.748991 327.740336 607.58714 327.740336L568.091316 327.740336C551.932275 327.741741 538.468747 321.826779 538.468747 307.986807L538.468747 307.986807ZM538.468747 599.32995C538.468747 585.487167 551.93368 579.57642 568.091316 579.57642L607.58714 579.57642C623.748989 579.57642 637.201281 585.487167 637.201281 599.32995 637.201281 613.167112 623.748991 619.079264 607.58714 619.079264L568.091316 619.079264C551.932275 619.079264 538.468747 613.167112 538.468747 599.32995L538.468747 599.32995ZM287.901057 778.429274 449.772405 734.027026 201.589806-170.759926 39.711434-126.3647 287.901057 778.429274 287.901057 778.429274 287.901057 778.429274ZM1.634304-115.916947C-4.484332-138.211481 6.98179-158.335837 29.263682-164.455877L191.142053-208.86234C213.430968-214.968334 233.562348-203.503618 239.680983-181.20768L487.869202 723.577866C493.883894 745.525453 489.070174 753.968777 467.131015 759.987683L286.221103 809.612405C264.280539 815.629906 255.831597 810.823209 249.811286 788.877027L1.634304-115.916947 1.634304-115.916947ZM250.693405 512.136579C247.032898 498.792446 258.449857 489.527405 274.037209 485.253069L312.121362 474.806721C327.70731 470.529575 342.252413 472.673065 345.912918 486.017196 349.573425 499.364137 338.156466 508.62918 322.569116 512.899301L284.48496 523.347057C268.904632 527.62701 254.35391 525.482117 250.693405 512.136579L250.693405 512.136579ZM224.572617 416.897401C220.905087 403.54765 232.323451 394.288224 247.909396 390.012484L286.000572 379.56473C301.587925 375.2918 316.1246 377.431075 319.786512 390.775206 323.447017 404.120744 312.035676 413.38719 296.449731 417.664336L258.358555 428.109279C242.771204 432.380807 228.227504 430.241532 224.572617 416.897401L224.572617 416.897401ZM199.751126 326.41435C196.090619 313.068814 207.507579 303.806583 223.08931 299.53646L261.179083 289.088705C276.765028 284.811561 291.310133 286.953644 294.965021 300.296372 298.631145 313.641908 287.214186 322.90695 271.628241 327.181287L233.538468 337.629041C217.962355 341.901971 203.411632 339.758483 199.751126 326.41435L199.751126 326.41435ZM276.814193 607.381377C273.159303 594.031626 284.576262 584.766585 300.16502 580.493654L338.247768 570.044496C353.829501 565.771565 368.373201 567.910838 372.040731 581.263399 375.695618 594.606127 364.278659 603.866954 348.703951 608.141292L310.614178 618.59045C295.025422 622.867595 280.48172 620.721295 276.814193 607.381377L276.814193 607.381377ZM800.120494 500.569324C800.120494 486.729351 813.585424 480.820009 829.743061 480.820009L869.236074 480.820009C885.400736 480.820009 898.853026 486.730756 898.853026 500.569324 898.853026 514.409296 885.400736 520.324258 869.236074 520.324258L829.743061 520.324258C813.585424 520.324258 800.120494 514.409296 800.120494 500.569324L800.120494 500.569324ZM800.120494 401.810102C800.120494 387.97013 813.585424 382.057978 829.743061 382.057978L869.236074 382.057978C885.400736 382.057978 898.853026 387.97013 898.853026 401.810102 898.853026 415.650075 885.400736 421.563632 869.236074 421.563632L829.743061 421.563632C813.585424 421.562229 800.120494 415.64867 800.120494 401.810102L800.120494 401.810102ZM800.120494 307.986807C800.120494 294.148239 813.585424 288.23749 829.743061 288.23749L869.236074 288.23749C885.400736 288.23749 898.853026 294.148239 898.853026 307.986807 898.853026 321.826779 885.400736 327.740336 869.236074 327.740336L829.743061 327.740336C813.585424 327.741741 800.120494 321.826779 800.120494 307.986807L800.120494 307.986807ZM800.120494 599.32995C800.120494 585.487167 813.585424 579.57642 829.743061 579.57642L869.236074 579.57642C885.400736 579.57642 898.853026 585.487167 898.853026 599.32995 898.853026 613.167112 885.400736 619.079264 869.236074 619.079264L829.743061 619.079264C813.585424 619.079264 800.120494 613.167112 800.120494 599.32995L800.120494 599.32995ZM1056.830695 500.569324C1056.830695 486.729351 1070.295628 480.820009 1086.460289 480.820009L1125.94628 480.820009C1142.110939 480.820009 1155.570254 486.730756 1155.570254 500.569324 1155.570254 514.409296 1142.110939 520.324258 1125.94628 520.324258L1086.460289 520.324258C1070.29563 520.324258 1056.830695 514.409296 1056.830695 500.569324L1056.830695 500.569324ZM1056.830695 401.810102C1056.830695 387.97013 1070.295628 382.057978 1086.460289 382.057978L1125.94628 382.057978C1142.110939 382.057978 1155.570254 387.97013 1155.570254 401.810102 1155.570254 415.650075 1142.110939 421.563632 1125.94628 421.563632L1086.460289 421.563632C1070.29563 421.562229 1056.830695 415.64867 1056.830695 401.810102L1056.830695 401.810102ZM1056.830695 307.986807C1056.830695 294.148239 1070.295628 288.23749 1086.460289 288.23749L1125.94628 288.23749C1142.110939 288.23749 1155.570254 294.148239 1155.570254 307.986807 1155.570254 321.826779 1142.110939 327.740336 1125.94628 327.740336L1086.460289 327.740336C1070.29563 327.741741 1056.830695 321.826779 1056.830695 307.986807L1056.830695 307.986807ZM1056.830695 599.32995C1056.830695 585.487167 1070.295628 579.57642 1086.460289 579.57642L1125.94628 579.57642C1142.110939 579.57642 1155.570254 585.487167 1155.570254 599.32995 1155.570254 613.167112 1142.110939 619.079264 1125.94628 619.079264L1086.460289 619.079264C1070.29563 619.079264 1056.830695 613.167112 1056.830695 599.32995L1056.830695 599.32995Z"  horiz-adv-x="1250" />

    
    <glyph glyph-name="message" unicode="&#58942;" d="M511.999-58.068c-10.577 0-20.499 5.108-26.622 13.72l-66.408 92.965c-212.586 37.428-365.41 197.26-365.41 384.501 0 216.679 205.644 392.95 458.441 392.95s458.441-176.271 458.441-392.95c0-187.273-152.825-347.073-365.378-384.467l-66.408-92.999c-6.156-8.612-16.078-13.72-26.655-13.72v0zM511.999 760.577c-216.679 0-392.95-146.898-392.95-327.458 0-158.589 136.026-294.026 323.43-321.99 8.775-1.309 16.667-6.156 21.809-13.359l47.711-66.737 47.711 66.769c5.141 7.237 13 12.049 21.809 13.361 187.405 27.931 323.43 163.335 323.43 321.957 0 180.56-176.271 327.458-392.95 327.458v0zM282.812 367.627c-36.119 0-65.492 29.374-65.492 65.492s29.373 65.492 65.492 65.492c36.119 0 65.492-29.373 65.492-65.492s-29.373-65.492-65.492-65.492v0zM282.844 433.119h-0.065l0.033-32.746 0.033 32.746zM741.253 367.627c-36.119 0-65.492 29.374-65.492 65.492s29.373 65.492 65.492 65.492 65.492-29.373 65.492-65.492-29.373-65.492-65.492-65.492v0zM741.286 433.119h-0.065l0.033-32.746 0.033 32.746zM512.032 367.627c-36.119 0-65.492 29.374-65.492 65.492s29.373 65.492 65.492 65.492 65.492-29.373 65.492-65.492-29.373-65.492-65.492-65.492v0zM512.065 433.119h-0.065l0.033-32.746 0.033 32.746z"  horiz-adv-x="1024" />

    
    <glyph glyph-name="homesearch" unicode="&#58892;" d="M974.176 3.537l-148.994 149.608c54.898 72.737 87.458 163.278 87.458 261.428 0 239.897-194.475 434.372-434.372 434.372-239.898 0-434.372-194.474-434.372-434.372s194.474-434.373 434.372-434.373c105.541 0 202.285 37.646 277.551 100.236l147.179-147.786c18.001-18.076 47.245-18.136 65.32-0.134l5.724 5.7c18.075 18.001 18.136 47.245 0.134 65.321zM478.267 55.702c-198.2 0-358.871 160.673-358.871 358.872s160.672 358.87 358.871 358.87 358.871-160.672 358.871-358.87c-0-198.2-160.671-358.872-358.871-358.872z"  horiz-adv-x="1024" />

    
    <glyph glyph-name="weixin1" unicode="&#59013;" d="M685.4 458.1c116.3 0 200.2-73.6 222.9-146.3 11.4-36.4 18.3-106-63.4-162.9l-2.5-1.7c-18.9-13-27.4-26.4-30-40.2l-2.3 1.2-15.3 8-16.7-4.4-20.5-5.4c-23.8-6.3-48.3-9.5-73-9.5-121.9 0-224.7 77.5-229.2 172.9-4.1 87.4 71.5 164.7 179.7 183.8C652 456.6 668.9 458.1 685.4 458.1M685.4 502.9c-18.8 0-38.2-1.6-58-5.1-131-23.1-221.9-119.4-216.7-230.1 5.7-123.9 132-215.6 273.9-215.6 27.8 0 56.2 3.5 84.5 11l20.3 5.3 42.8-22.3c22.4-11.8 41.3-20.6 43.7-20.6 0.1 0 0.2 0 0.3 0.1 0.5 1.3-4.1 17.3-10.2 35.6-13.7 41-14 38 4.4 50.8C1062.2 245.4 920.5 502.9 685.4 502.9L685.4 502.9zM300.4 607.4c28-18.4 29.7-58 2.7-75-43.7-27.7-94.7 21-65.4 62.5C250.7 613.5 281.7 619.6 300.4 607.4zM525.5 607.4c46.1-30.1 11.5-99.5-40.1-80.3-37.3 13.8-41.7 63.6-6.9 81.4C492.3 615.6 513.7 615.1 525.5 607.4zM622.2 378.4c11.5-7.4 17.6-26.1 12.6-39.6-10.4-29-55.2-31.1-67.3-3.2C553.8 367.7 591.7 397.5 622.2 378.4zM805.6 375.2c18.1-16.8 15.1-45.2-6-55.8-32.4-16-66.5 16-49.7 46.5C760.9 385.6 789.2 390.3 805.6 375.2zM711.7 520.4l-5.2 17.6c-35.7 120.8-171.6 204.5-318.2 204.5-21.5 0-43.2-1.8-64.9-5.5C59 691.1-29.2 401.8 181.2 269.3c11.5-7.2 11.5-6.4-5.8-56.4l-14.8-42.8 53.3 27.7 53.3 27.7 28.3-6.6c29.7-7.2 67.6-12.2 92.8-12.2l15.1 0-5.2 19.4c-2.4 8.6-4 17.1-5.2 25.6l-45.7 3.1c-14.1 1.9-28.8 4.6-41.5 7.7l-28.3 6.7-16.2 3.8-14.7-7.6-12.8-6.7c0.8 19.1-6.3 34.8-28.6 48.7C130.7 354 96.9 425.6 112.3 503.6 131.2 598.8 217 673 331 692.7c18.8 3.2 38 4.9 57.2 4.9 112.8 0 214.9-54.6 259.2-134.3l17.3-43.8C673.3 520.1 711.7 520.4 711.7 520.4z"  horiz-adv-x="1024" />

    
    <glyph glyph-name="me" unicode="&#58968;" d="M887.623983-62.261787l-55.851029 0c0 164.008354-132.684952 297.829176-300.272831 308.232107l0 0c-6.919597-0.48914-13.82282-1.052982-20.868283-1.052982-7.045463 0-13.948687 0.563842-20.868283 1.052982l0 0c-167.588903-10.401908-300.272831-144.223752-300.272831-308.232107l-55.851029 0c0 155.36858 101.601003 287.454898 244.122997 339.245448-95.088682 48.484248-160.346965 147.094126-160.346965 261.149788 0 161.939229 131.276882 293.216111 293.216111 293.216111s293.216111-131.276882 293.216111-293.216111c0-114.055662-65.258283-212.665541-160.346965-261.149788C786.02298 225.193111 887.623983 93.10577 887.623983-62.261787zM750.535745 538.13345c0 132.494617-107.409289 239.903905-239.903905 239.903905s-239.903905-107.409289-239.903905-239.903905 107.409289-239.903905 239.903905-239.903905S750.535745 405.638833 750.535745 538.13345z"  horiz-adv-x="1024" />

    
    <glyph glyph-name="cion3" unicode="&#58883;" d="M143.36-115.2c-35.84 0-66.56 33.28-66.56 76.8l0 844.8c0 40.96 30.72 76.8 66.56 76.8l737.28 0c35.84 0 66.56-33.28 66.56-76.8l0-517.12c0-7.68-2.56-15.36-7.68-23.04L611.84-107.52c-5.12-5.12-10.24-7.68-17.92-7.68L143.36-115.2 143.36-115.2zM184.32 826.88C153.6 826.88 128 796.16 128 760.32l0-752.64c0-35.84 25.6-64 56.32-64l384 0L568.32 243.2c0 40.96 30.72 76.8 66.56 76.8L896 320 896 760.32c0 35.84-25.6 64-56.32 64L184.32 826.88 184.32 826.88zM675.84 261.12c-30.72 0-56.32-28.16-56.32-64l0-207.36 238.08 273.92L675.84 261.12 675.84 261.12zM307.2 215.04c-15.36 0-25.6 12.8-25.6 30.72s10.24 30.72 25.6 30.72l81.92 0c15.36 0 25.6-12.8 25.6-30.72s-10.24-30.72-25.6-30.72L307.2 215.04 307.2 215.04zM307.2 401.92c-15.36 0-25.6 12.8-25.6 30.72 0 15.36 10.24 30.72 25.6 30.72l409.6 0c15.36 0 25.6-12.8 25.6-30.72 0-15.36-10.24-30.72-25.6-30.72L307.2 401.92 307.2 401.92zM307.2 591.36c-15.36 0-25.6 12.8-25.6 30.72 0 15.36 10.24 30.72 25.6 30.72l409.6 0c15.36 0 25.6-12.8 25.6-30.72 0-15.36-10.24-30.72-25.6-30.72L307.2 591.36 307.2 591.36zM307.2 591.36M593.92-128 130.56-128l0 2.56c-38.4 7.68-66.56 43.52-66.56 87.04l0 844.8C64 855.04 99.84 896 143.36 896l737.28 0c43.52 0 79.36-40.96 79.36-89.6l0-517.12c0-10.24-2.56-20.48-10.24-28.16L622.08-115.2C614.4-122.88 604.16-128 593.92-128zM156.16-102.4l437.76 0c5.12 0 7.68 0 10.24 5.12l327.68 373.76c2.56 2.56 5.12 7.68 5.12 12.8L936.96 806.4c0 35.84-23.04 64-53.76 64L143.36 870.4C112.64 870.4 89.6 842.24 89.6 806.4l0-844.8c0-35.84 23.04-64 53.76-64L156.16-102.4zM581.12-69.12 184.32-69.12c-38.4 0-69.12 35.84-69.12 76.8L115.2 760.32c0 43.52 30.72 76.8 69.12 76.8l655.36 0c38.4 0 69.12-35.84 69.12-76.8L908.8 307.2 634.88 307.2c-30.72 0-53.76-28.16-53.76-64L581.12-69.12zM176.64 811.52c-20.48-5.12-35.84-25.6-35.84-51.2l0-752.64c0-28.16 20.48-51.2 43.52-51.2l371.2 0L555.52 243.2c0 48.64 35.84 89.6 79.36 89.6l248.32 0L883.2 760.32c0 28.16-20.48 51.2-43.52 51.2L176.64 811.52zM606.72-46.08l0 240.64c0 43.52 30.72 76.8 69.12 76.8l209.92 0L606.72-46.08zM675.84 248.32c-23.04 0-43.52-23.04-43.52-51.2l0-174.08 199.68 227.84L675.84 250.88zM389.12 202.24 307.2 202.24c-20.48 0-38.4 17.92-38.4 43.52 0 23.04 17.92 43.52 38.4 43.52l81.92 0c20.48 0 38.4-17.92 38.4-43.52C427.52 220.16 412.16 202.24 389.12 202.24zM307.2 261.12c-7.68 0-12.8-7.68-12.8-17.92 0-10.24 5.12-17.92 12.8-17.92l81.92 0c7.68 0 12.8 7.68 12.8 17.92 0 10.24-5.12 17.92-12.8 17.92L307.2 261.12zM716.8 389.12 307.2 389.12c-20.48 0-38.4 17.92-38.4 43.52 0 23.04 17.92 43.52 38.4 43.52l409.6 0c20.48 0 38.4-17.92 38.4-43.52C755.2 409.6 739.84 389.12 716.8 389.12zM307.2 450.56c-7.68 0-12.8-7.68-12.8-17.92 0-10.24 5.12-17.92 12.8-17.92l409.6 0c7.68 0 12.8 7.68 12.8 17.92 0 10.24-5.12 17.92-12.8 17.92L307.2 450.56zM716.8 578.56 307.2 578.56c-20.48 0-38.4 17.92-38.4 43.52 0 23.04 17.92 43.52 38.4 43.52l409.6 0c20.48 0 38.4-17.92 38.4-43.52C755.2 596.48 739.84 578.56 716.8 578.56zM307.2 637.44c-7.68 0-12.8-7.68-12.8-17.92 0-10.24 5.12-17.92 12.8-17.92l409.6 0c7.68 0 12.8 7.68 12.8 17.92 0 10.24-5.12 17.92-12.8 17.92L307.2 637.44z"  horiz-adv-x="1024" />

    
    <glyph glyph-name="thumbsup" unicode="&#59445;" d="M194.272 128q0 14.848-10.848 25.728t-25.728 10.848q-15.424 0-26.016-10.848t-10.56-25.728q0-15.424 10.56-26.016t26.016-10.56q14.848 0 25.728 10.56t10.848 26.016zM285.728 420.576l0-365.728q0-14.848-10.848-25.728t-25.728-10.848l-164.576 0q-14.848 0-25.728 10.848t-10.848 25.728l0 365.728q0 14.848 10.848 25.728t25.728 10.848l164.576 0q14.848 0 25.728-10.848t10.848-25.728zM962.272 420.576q0-49.152-31.424-85.152 8.576-25.152 8.576-43.424 1.728-43.424-24.576-78.272 9.728-32 0-66.848-8.576-32.576-30.848-53.728 5.152-64-28-103.424-36.576-43.424-112.576-44.576l-73.728 0q-37.728 0-82.272 8.864t-69.44 16.576-68.864 22.56q-70.272 24.576-90.272 25.152-14.848 0.576-25.728 11.136t-10.848 25.44l0 366.272q0 14.272 10.272 24.864t24.576 11.712q13.728 1.152 43.424 33.728t57.728 69.152q38.848 49.728 57.728 68.576 10.272 10.272 17.728 27.424t10.016 27.712 7.712 34.56q4 22.272 7.136 34.848t11.136 29.728 19.424 28.576q10.848 10.848 25.728 10.848 26.272 0 47.136-6.016t34.272-14.848 22.848-23.136 13.728-25.728 6.848-28.576 2.848-25.728 0.288-22.272q0-21.728-5.44-43.424t-10.848-34.272-15.712-32q-1.728-3.424-5.728-10.272t-6.272-12.576-4.576-13.728l158.272 0q44.576 0 77.152-32.576t32.576-77.152z"  horiz-adv-x="1024" />

    
    <glyph glyph-name="comment" unicode="&#58958;" d="M95.983467 839.111111C43.190284 839.111111 0 798.094222 0 747.918222L0 213.162667C0 131.015111 28.967983 99.384889 113.767032 99.384889L511.991467 99.384889C605.208334 99.384874 640.737427 47.160889 666.974728-15.246222 680.286802-46.876444 694.901638-71.111111 717.805232-71.111111 735.224707-71.111111 755.858422-43.918222 764.425936-14.449778 785.765077 58.823111 807.644665 99.384889 853.326697 99.384889L910.210212 99.384889C998.564837 99.384889 1024 131.015111 1024 213.162667L1024 747.918222C1024 798.094222 980.792649 839.111111 927.993777 839.111111L95.983467 839.111111ZM911.705982 156.423221 830.743071 156.423207C744.778271 156.423207 727.854182 15.020809 714.729182 15.020809 701.604182 15.020809 678.458349 156.423207 513.489449 156.423221L115.267227 156.423221C72.759849 156.423221 58.378338 173.410175 58.378338 211.575669L56.877511 752.870702C56.877511 768.589149 71.771022 781.880889 89.389511 781.880889L934.593422 781.880889C952.211911 781.880889 967.105422 768.589149 967.105422 752.870702 967.105422 752.870702 967.105329 248.45655 967.105376 211.575659 967.105376 173.410164 949.451404 156.423207 911.705982 156.423221Z"  horiz-adv-x="1024" />

    
    <glyph glyph-name="qq" unicode="&#58899;" d="M534.377148 831.88168c302.340933 0 317.210595-288.721751 317.210595-288.721751 45.862537-60.731176 21.084201-115.245767 21.084201-115.245767 147.456377-231.735875 52.05047-298.68466 26.02677-303.621089-26.02677-4.937452-50.829665 28.51852-50.829665 28.51852s-8.650007-33.429367-29.740348-50.823526c76.854389-35.897581 63.201437-80.536244 63.201437-80.536244s-16.117073-134.765333-335.797929-49.576115l-27.27111 4.964058c-306.406528-110.594841-344.484775 38.423101-344.484775 38.423101s-12.401448 61.926398 47.078225 85.505419c-34.707476 21.084201-47.078225 65.669652-47.078225 65.669652s-30.992875-50.79692-71.881121-32.212656c-40.895409 18.587334-65.668629 183.380564 87.973634 302.33991 0 0-22.280446 70.63678 28.517497 112.778576C218.386334 549.343769 232.035192 831.88168 534.377148 831.88168M265.464559 533.226696c-66.916039-56.986899-22.303982-114.024963-22.303982-114.024963C95.705224 328.732256 121.729947 182.527382 121.729947 182.527382s23.52274 11.789511 40.251749 45.857421c16.731056 34.07098 42.754756-5.574972 42.754756-5.574972s16.117073-78.070076 65.462944-108.651582c49.348941-30.582529-2.174526-50.095955-2.174526-50.095955s-54.318116-0.788969-49.63956-37.673018c4.673439-36.885072 179.871647-83.065857 285.004079-1.24741l55.757908-7.437389c183.415356-63.783699 273.856182-4.298909 279.895735 7.111978 6.0416 11.411911-27.704992 33.809013-58.724473 46.788629-31.022551 12.986779-39.003316 26.66736-11.562337 44.936445 27.445072 18.262946 38.281885 54.513568 54.342676 92.036159 16.054651 37.525662 40.250726 19.197224 43.3626 8.650007 3.105734-10.541077 26.02063-45.825698 26.02063-45.825698s59.743686 63.312978-64.446801 250.297626c0 0 26.951839 56.026014-18.591427 101.592816 0 0-11.124362 262.724657-280.062534 262.724657C260.442172 786.01812 265.464559 533.226696 265.464559 533.226696"  horiz-adv-x="1024" />

    
    <glyph glyph-name="aui-icon-weibo" unicode="&#58929;" d="M705.43 391.732q-14.125 3.139-18.048 8.632-3.924 5.493-1.569 10.201 0.785 1.569 3.139 3.924 1.569 2.354 3.139 6.278 1.569 3.139 4.708 13.34 3.924 10.986 3.924 21.187 0.785 10.201-3.924 22.757-3.924 13.34-14.125 23.541-12.555 12.555-33.742 16.479-20.402 3.924-40.805 0.785-20.402-3.139-39.235-8.632-18.833-4.708-30.604-9.416-3.924-1.569-10.986-4.708-9.416-3.139-15.694-4.708-5.493-0.785-9.416 0.785-3.139 1.569-4.708 2.354-1.569 1.569-1.569 6.278 0 5.493 0.785 9.416 0.785 3.139 2.354 10.986 2.354 7.847 3.139 12.555 0 14.125-2.354 25.895-2.354 11.771-10.201 24.326-7.062 13.34-20.402 19.618-10.986 6.278-32.173 6.278-2.354 0-4.708 0-23.541 0-55.714-10.986-31.388-10.986-64.346-32.173-32.958-21.972-58.068-45.513-24.326-23.541-43.944-45.513-20.402-21.972-31.388-36.097-3.139-4.708-10.201-14.125-18.833-24.326-32.173-50.221-12.555-25.895-18.048-43.944-4.708-17.264-7.062-33.742-1.569-16.479-1.569-21.972 0-5.493 0.785-7.847 4.708-43.944 26.68-79.255 21.187-34.527 51.006-56.499 29.819-21.187 69.839-36.097 40.805-14.909 77.686-21.972 37.666-7.062 79.255-10.201 17.264-1.569 35.312-1.569 51.791 0 105.151 11.771 72.978 16.479 135.754 55.714 63.561 40.020 89.457 94.95 14.909 32.958 14.909 61.207 0.785 0.785 0.785 1.569 0 27.465-10.201 43.944-9.416 18.048-25.895 31.388-16.479 14.125-30.604 20.402-13.34 6.278-24.326 8.632zM425.29 106.884q-9.416-0.785-18.833-0.785-87.103 0-149.879 39.235-69.839 43.159-69.839 109.074 0 65.131 69.054 112.998 69.839 47.082 169.497 51.006 10.986 0.785 21.972 0.785 86.318 0 146.74-33.742 69.054-37.666 69.054-102.797 0-66.7-69.839-119.276-70.624-52.575-167.927-56.499zM398.61 360.344q-27.465-3.139-48.652-12.555-20.402-9.416-32.958-21.187t-20.402-27.465q-7.847-15.694-10.986-28.249-3.139-11.771-4.708-25.111-0.785-12.555-0.785-17.264 0.785-4.708 1.569-7.062-0.785-1.569-0.785-4.708 0.785-2.354 2.354-10.201 1.569-7.847 5.493-14.909 3.139-7.062 10.201-15.694 7.847-7.847 18.048-13.34 36.881-20.402 76.117-21.187 1.569 0 3.139 0 37.666 0 66.7 14.125 30.604 15.694 51.006 42.374 12.555 14.909 17.264 37.666 1.569 9.416 1.569 18.833 0 13.34-3.924 27.465-5.493 23.541-20.402 43.159-14.125 18.833-43.159 29.034-20.402 7.847-45.513 7.847-10.201 0-21.187-1.569zM364.867 186.924q-3.139-0.785-7.062-0.785-13.34 0-24.326 7.847-13.34 9.416-13.34 25.111 0 15.694 12.555 29.034 11.771 13.34 30.604 15.694 3.924 0.785 7.062 0.785 15.694 0 26.68-8.632 12.555-10.201 12.555-26.68 0-15.694-12.555-28.249-13.34-12.555-32.173-14.125zM442.553 252.839q-5.493-3.924-11.771-3.924 0 0-0.785 0-7.062 0.785-10.201 6.278-3.139 3.139-3.139 7.847 0 2.354 0.785 4.708 1.569 7.847 7.847 11.771 7.062 4.708 13.34 4.708 0.785 0 0.785 0 7.062-0.785 10.201-6.278 2.354-3.924 2.354-7.847 0-2.354-0.785-4.708-2.354-7.847-8.632-12.555zM768.992 445.093q8.632 0 14.125 5.493 6.278 4.708 7.062 12.555 0 0.785 0.785 1.569 0 0 0 0.785 1.569 13.34 1.569 25.111 0 80.040-70.624 94.165-14.909 3.139-29.819 3.139-10.201 0-20.402-1.569-8.632 0-14.909-7.062-6.278-6.278-6.278-15.694 0-8.632 6.278-14.909 6.278-6.278 14.909-6.278 29.034 5.493 45.513 0 16.479-4.708 23.541-17.264 7.062-12.555 7.847-25.895 1.569-12.555 0.785-22.757-0.785-3.139-1.569-9.416 0-8.632 6.278-14.909 6.278-7.062 14.909-7.062zM754.082 698.553q-21.187 5.493-47.082 5.493-28.249 0-61.207-6.278-0.785 0-2.354-0.785-0.785 0-0.785-0.785 0 0-0.785 0-10.201-3.139-17.264-11.771-6.278-8.632-6.278-18.833 0-13.34 9.416-22.757 9.416-9.416 22.757-9.416 16.479 2.354 28.249 7.062 4.708 0 15.694 1.569 10.986 0.785 29.819-3.924 19.618-4.708 38.451-11.771 18.833-7.062 38.451-24.326 20.402-16.479 33.742-39.235 5.493-11.771 9.416-23.541 3.139-11.771 3.924-21.972 1.569-10.201 2.354-18.048 0-8.632-0.785-16.479-0.785-7.062-1.569-10.986-0.785-4.708-2.354-9.416 0-1.569-0.785-4.708-6.278-14.909-6.278-29.819 0-12.555 8.632-20.402 9.416-7.847 22.757-7.847 8.632 0 14.125 0.785 5.493 1.569 10.201 7.847 4.708 6.278 6.278 17.264 13.34 41.59 13.34 76.901 0 8.632-0.785 16.479-3.924 41.59-18.048 72.193-14.125 30.604-38.451 52.575-25.111 22.757-51.006 35.312-25.111 13.34-51.791 19.618z"  horiz-adv-x="1024" />

    
    <glyph glyph-name="true" unicode="&#58880;" d="M511.685333 826.906365c-245.013273 0-443.644169-198.618617-443.644169-443.629843 0-245.013273 198.629873-443.635983 443.644169-443.635983 245.01225 0 443.651332 198.62271 443.651332 443.635983C955.336666 628.287749 756.697583 826.906365 511.685333 826.906365zM511.685333 46.078711c-185.92962 0-337.184509 151.260006-337.184509 337.196789 0 185.928596 151.255912 337.179392 337.184509 337.179392 185.919387 0 337.169159-151.250796 337.169159-337.179392C848.854493 197.33974 697.60472 46.078711 511.685333 46.078711zM748.148883 524.557246c-19.704784 24.064069-55.683207 26.573215-79.350233 6.392594L429.422771 326.843232c-0.029676-0.021489-0.071631-0.019443-0.097214 0.011256l-71.625294 84.003206c-19.980054 23.432689-55.3097 26.025747-78.535681 5.606695-22.791076-20.036335-24.606421-54.983265-4.91801-78.07417l106.794281-125.248585c19.823488-23.249517 54.742788-26.02677 77.993329-6.202259l282.180777 240.6018C764.143159 467.09144 767.146563 501.352755 748.148883 524.557246z"  horiz-adv-x="1024" />

    
    <glyph glyph-name="github-copy" unicode="&#58888;" d="M512 834.347c-251.413 0-455.893-204.48-455.893-455.893 0-207.893 140.693-389.227 342.293-441.067l11.733-2.987c5.867-1.493 12.267-0.427 17.28 3.093 5.013 3.413 8.32 8.96 9.067 15.040l1.173 10.027c0.64 2.773 0.96 5.547 0.96 8.32v90.773c0 5.973-2.453 11.627-6.827 15.68-1.813 1.707-3.84 2.987-6.080 3.947 6.827 2.987 11.627 9.387 12.587 16.853l0.853 6.72c2.133 17.28 7.36 29.44 15.573 36.16l18.347 15.040c6.507 5.333 9.28 13.973 7.040 22.080-2.133 8.107-8.96 14.187-17.28 15.467l-23.467 3.627c-20.267 3.2-38.4 6.293-53.973 9.28-13.867 4.373-28.48 10.773-43.413 18.987-14.4 8.213-26.133 17.92-35.093 28.907-9.493 11.947-17.387 27.84-23.36 47.36-6.72 21.333-10.133 46.187-10.133 73.707 0 36.373 11.733 66.88 34.667 90.88l4.693 4.907c5.867 6.080 7.573 15.040 4.373 22.827l-2.56 6.187c-8.107 20.48-9.067 43.52-2.773 68.587 3.2-1.067 6.933-2.453 11.52-4.48 0.64-0.32 1.173-0.533 1.813-0.747l0.32-0.107c22.72-8.427 33.6-14.080 38.827-17.493 1.067-0.747 2.133-1.387 3.2-1.92l0.213-0.107c8.107-4.373 14.293-8.213 18.453-11.413 0-0.107 0.107-0.107 0.213-0.213l4.373-3.307c5.44-4.16 12.587-5.44 19.093-3.413l5.12 1.6c28.907 8.64 59.413 13.12 90.667 13.12h12.587c30.827 0 61.333-4.373 90.773-13.12l4.907-1.493c6.4-1.92 13.227-0.747 18.667 3.093l22.507 16.107c13.44 6.933 28.8 14.187 45.867 21.653 4.053 1.173 7.467 2.133 10.347 2.88 6.827-25.813 6.187-48.64-1.813-68.16l-2.56-6.187c-3.2-7.573-1.6-16.427 3.947-22.507l4.587-5.013c23.893-26.027 34.987-55.147 34.987-91.413 0-28.8-3.307-53.333-9.92-72.853-0.213-0.64-0.427-1.387-0.533-2.027-6.293-20.16-13.867-35.413-22.293-45.333-0.64-0.747-1.173-1.493-1.707-2.24-9.067-11.2-20.16-20.267-33.067-26.88-0.747-0.32-1.387-0.747-2.027-1.173l-0.32-0.213c-14.72-8.96-28.907-15.040-42.133-18.027-0.96-0.213-1.813-0.533-2.773-0.853-13.973-3.733-30.827-6.507-49.813-8.32l-24.107-2.133c-8.427-0.747-15.573-6.507-18.347-14.507s-0.427-16.96 5.867-22.613l17.92-16.213c12.267-11.093 18.453-29.547 18.453-54.613v-117.867c0-3.413 0.533-6.187 0.96-8l1.173-10.347c0.64-6.187 3.947-11.733 9.067-15.253 3.52-2.453 7.787-3.733 12.053-3.733 1.813 0 3.627 0.213 5.44 0.64l11.733 3.093c201.387 51.84 342.080 233.173 342.080 441.067-0.213 251.733-204.8 456.533-456.107 456.533zM626.24 150.72c8.533 1.6 16.64 3.413 24.32 5.44 18.667 4.373 37.973 12.587 57.387 24.427 19.627 10.24 36.587 24.213 50.347 41.6 13.44 15.68 24.107 36.907 32.853 64.853 8.427 25.173 12.693 55.253 12.693 89.6 0 44.8-13.653 84.267-40.533 117.547 10.56 34.667 7.467 73.707-9.173 116.16-2.56 6.4-8 11.2-14.72 12.907-4.587 1.173-9.6 1.707-15.147 1.707-11.733 0-25.6-2.667-41.28-7.893-0.533-0.213-1.173-0.427-1.707-0.64-21.44-9.387-38.613-17.493-52.693-24.96-0.853-0.427-1.707-0.96-2.453-1.493l-11.947-8.533c-31.467 8.32-63.573 12.587-95.787 12.587-2.133 0-4.267 0-6.72-0.107-0.747 0-1.387 0-2.133 0-1.28 0.107-2.453 0.107-3.733 0.107-32.747 0-64.96-4.267-96-12.693-4.8 3.093-10.133 6.187-16.213 9.493-11.093 7.253-27.307 14.613-49.387 22.72-17.067 7.36-31.573 10.987-44.16 10.987-6.827 0-13.013-0.96-18.453-2.987-5.653-2.133-10.24-6.613-12.48-12.267-16.107-41.173-18.88-80.107-8.213-115.84-26.88-32.427-40.533-72-40.533-117.76 0-33.067 4.267-63.253 12.587-89.6 8-25.707 18.987-47.573 32.747-64.747l0.107-0.107c13.013-16 29.973-29.973 50.347-41.707 0.107 0 0.107-0.107 0.213-0.107 18.453-10.347 37.12-18.453 55.36-24 0.747-0.213 1.493-0.427 2.24-0.533 7.68-1.493 15.36-2.88 23.253-4.267-3.413-7.573-6.187-16-8.107-25.067-3.413-0.96-6.933-2.027-10.667-3.093-7.68-1.067-16.533-1.92-26.453-2.453-8.213 0.533-16.64 3.307-25.067 8.107-8.747 6.507-16.853 15.68-24.107 27.413-7.893 14.933-18.88 27.093-32.64 36.053-13.44 9.387-24.96 14.507-35.947 15.893l-8.96 2.453c-2.347 0.64-4.907 0.853-7.36 0.64-10.24-0.853-17.173-2.24-22.613-4.373-1.813-0.747-3.413-1.6-4.907-2.773-10.133-7.68-13.653-19.733-9.28-30.293 1.707-5.44 4.587-10.347 8.64-14.293 2.773-4.053 6.080-7.36 9.92-9.813l1.813-1.813c2.027-2.133 4.48-3.733 7.253-4.8 4.373-1.707 9.387-6.4 14.4-13.547 0.32-0.32 0.533-0.747 0.853-1.067 6.507-8.213 11.307-15.893 14.4-23.040 0.213-0.32 0.32-0.747 0.533-1.067l5.013-10.133c3.307-10.027 7.893-18.987 13.973-26.667-23.040 18.773-44.053 40-62.507 63.467-27.307 34.667-48.533 73.173-63.147 114.56-15.147 42.88-22.827 87.893-22.827 133.76 0 54.293 10.56 106.987 31.573 156.587 20.267 47.893 49.28 90.88 86.293 127.893 37.013 37.013 80.107 66.027 128 86.293 49.6 20.907 102.293 31.573 156.693 31.573 54.4 0 107.093-10.56 156.693-31.573 48-20.267 90.987-49.28 128-86.293 37.013-37.013 66.027-80.107 86.293-128 21.013-49.6 31.68-102.293 31.68-156.693 0-45.867-7.68-90.88-22.827-133.653-14.613-41.387-35.84-79.893-63.147-114.56-27.093-34.347-59.307-63.893-95.787-87.893-29.44-19.307-61.12-34.667-94.293-45.653v92.16c0 23.787-4.16 44.48-12.373 61.867zM320.64 30.293c12.267-2.987 24.64-4.48 36.693-4.48 1.92 0 3.947 0 6.187 0.107 2.773-0.107 5.653-0.213 8.64-0.213 4.693 0 9.173 0.213 13.44 0.64v-29.547c-28.8 9.6-56.427 22.293-82.453 38.187 5.653-2.133 11.52-3.627 17.493-4.693z"  horiz-adv-x="1024" />

    
    <glyph glyph-name="songs" unicode="&#59258;" d="M924.128 849.184h-1.792l-594.112-107.36c-15.36-1.12-27.52-13.952-27.52-29.6l-1.152-507.296c-27.552 30.56-61.568 47.008-110.080 47.008-85.664 0-155.136-69.44-155.136-155.136 0-85.664 69.44-155.136 155.136-155.136s155.136 69.44 155.136 155.136c0 3.872-0.192 7.712-0.48 11.552l-0 591.68 566.272 105.312v-519.808c-23.040 29.152-63.424 50.336-112.96 50.336-85.664 0-155.136-69.44-155.136-155.136s69.44-155.136 155.136-155.136 155.136 69.44 155.136 155.136h1.248l-0 638.784c0 16.352-13.312 29.664-29.696 29.664zM189.472-16c-62.304 0-112.832 50.528-112.832 112.832s50.528 112.832 112.832 112.832c58.304 0 106.24-44.224 112.192-100.96v-11.872h0.64c0-62.336-50.528-112.832-112.832-112.832zM797.44 67.776c-62.4 0-112.992 50.592-112.992 112.992s50.592 112.992 112.992 112.992c62.4 0 112.992-50.592 112.992-112.992s-50.592-112.992-112.992-112.992z"  horiz-adv-x="1024" />

    
    <glyph glyph-name="thumbs-down" unicode="&#61230;" d="M217.819934 268.313188H82.998319c-27.806299 0-50.428529 26.113751-50.428529 58.210773V703.956126c0 32.097022 22.62223 58.20975 50.428529 58.20975h134.821615c27.805276 0 50.426483-26.112728 50.426483-58.20975v-377.432165c0-32.097022-22.621207-58.210773-50.426483-58.210773zM82.998319 721.234651c-3.347235 0-9.496282-6.559393-9.496281-17.277502v-377.432165c0-10.719132 6.149047-17.278525 9.496281-17.278525h134.821615c3.347235 0 9.494235 6.559393 9.494235 17.278525V703.956126c0 10.718109-6.147 17.277502-9.494235 17.277502H82.998319z m67.409273-166.18902c-20.551058 0-39.768749 7.986905-54.111409 22.4892-14.184047 14.341636-21.995967 33.384341-21.995967 53.618175 0 42.676985 33.43039 76.107375 76.107376 76.107375 20.23588 0 39.278585-7.810896 53.619198-21.994943 14.501272-14.34266 22.488177-33.559327 22.488177-54.112432 0-20.178575-7.957229-39.248909-22.407336-53.699016-14.450107-14.450107-33.520441-22.408359-53.700039-22.408359z m0 111.282503c-20.053732 0-35.175127-15.121396-35.175128-35.175128 0-19.395746 15.779382-35.175127 35.175128-35.175127 19.067264 0 35.175127 16.107863 35.175127 35.175127 0 19.724227-15.4509 35.175127-35.175127 35.175128zM631.470999-109.120001c-15.319917 0-29.838585 6.063089-40.900526 17.076934-30.18344 29.525454-37.885865 70.532403-44.655036 106.749256l-0.819668 3.987824c-6.368034 31.051203-12.382005 60.380182-30.093389 78.058821-19.866467 19.86749-41.840944 47.89073-61.227479 72.614831l-0.198522 0.25685c-9.831926 12.958126-29.369911 38.080294-49.745984 60.741409-27.92091 31.051203-38.954197 36.676317-40.916898 37.500079-30.255071 3.15997-53.853535 28.526707-53.853536 58.05216V703.956126c0 31.138184 25.837458 57.246819 57.594743 58.20054 17.400299 0.508583 52.572356 12.788258 86.585007 24.662702L456.245162 787.853931c64.667835 22.187325 145.150868 49.799196 231.841275 49.799196l76.326363-0.001023c58.07365-0.674359 102.338806-18.597567 131.563408-53.272298 24.623817-29.151947 36.130895-66.890456 34.250059-112.272039 13.963013-15.742543 24.688285-35.894512 30.597878-57.719586 6.484691-23.619954 7.28594-47.745421 2.39556-70.338998 16.685008-25.520233 24.841781-54.803163 23.678282-85.306898-0.061398-8.598842-1.859347-23.278169-6.53688-39.98262 18.781762-25.455765 30.137391-59.731406 30.137391-92.234681l-0.001023-0.200568c-0.344854-35.096333-14.478759-68.424392-39.802518-93.845365-25.469068-25.568329-58.814524-39.650045-93.89346-39.650045H744.493122a167.727049 167.727049 0 0 0 4.37054-8.125051l1.176803-2.359744c15.146978-30.343075 33.998325-68.109214 33.998325-120.022561 0-24.460088 0-65.400522-18.782786-101.879342-10.972912-21.310352-26.875091-38.018895-47.264466-49.66105-23.125697-13.205766-52.234665-19.901259-86.520539-19.901259zM486.09091 194.491879c18.648732-23.780613 39.767725-50.704822 57.842383-68.780503 26.408463-26.358321 33.95944-63.181995 41.260729-98.793051l0.923023-4.513803c5.945409-31.80845 12.092409-64.700581 33.127491-85.23629l0.174986-0.171916c3.342118-3.343141 7.621585-5.183046 12.050453-5.183045 49.123814 0 80.981383 15.493879 97.393168 47.366797 14.242376 27.658943 14.242376 62.389956 14.242375 83.140559 0 42.265616-15.092743 72.502267-29.689182 101.742218l-1.174756 2.355651c-1.582031 3.164063-3.168156 5.906523-4.845355 8.809643-4.563946 7.895831-9.737782 16.84362-13.802354 33.102933l-6.356778 25.430182h189.565427c49.759287 0 92.218308 42.524512 92.76373 92.876294-0.029676 26.558889-10.717086 55.637158-27.242458 74.108858l-7.999184 8.941649 3.894703 11.348466c5.684466 16.562211 7.747451 31.888268 7.747452 38.148855l0.017396 0.833995c0.997724 24.442692-6.358825 47.846728-21.27249 67.684542l-6.198165 8.243754 2.938935 9.886162c5.431709 18.275225 5.3918 37.718043-0.11768 57.789171-4.936429 18.2302-14.241352 34.539654-26.220175 45.994543l-7.02909 6.721075 0.772596 9.694803c3.056616 38.411845-5.072529 69.349461-24.164352 91.951225-21.205974 25.159006-55.063083 38.186717-100.641142 38.737257h-75.965135c-79.863932 0-156.765393-26.383904-218.557738-47.583739l-2.797719-0.961908c-40.329521-14.07967-75.15877-26.240641-98.865705-26.932395-9.513678-0.285502-17.874089-8.363482-17.87409-17.285689V325.92328c0-8.364505 8.081049-16.45374 17.315364-17.356296 11.611455-0.972141 27.456329-7.513114 63.940265-47.493688 22.270213-24.408923 43.883463-52.141544 54.843072-66.581417z"  horiz-adv-x="1024" />

    
    <glyph glyph-name="favorite" unicode="&#59030;" d="M231.906954-58.876478a24.575296 24.575296 0 0 0-24.341849 27.960261l39.91105 286.861951L45.333547 468.0702a24.573248 24.573248 0 0 0 13.542931 41.156095l284.33705 49.883693 139.747036 257.036172a24.572224 24.572224 0 0 0 21.506712 12.835426h0.08191a24.573248 24.573248 0 0 0 21.509783-12.692082L670.865023 554.142096l281.573584-44.85232a24.573248 24.573248 0 0 0 13.614603-41.539028L759.184347 258.388724l42.312061-281.246964a24.576319 24.576319 0 0 0-9.513942-23.282128 24.577343 24.577343 0 0 0-25.00328-2.721487L504.867615 70.961396l-262.227271-127.367239a24.538436 24.538436 0 0 0-10.73339-2.470635zM112.575168 468.749036l178.664917-187.487737a24.5712 24.5712 0 0 0 6.548771-20.338458L262.588702 7.918729l231.225047 112.308957a24.570176 24.570176 0 0 0 20.952789 0.244709l231.37863-105.773497-37.393316 248.549186a24.575296 24.575296 0 0 0 6.8201 20.926168l181.908586 184.101749-246.191178 39.21788a24.568128 24.568128 0 0 0-17.643592 12.38594L504.721199 753.276529 380.727663 525.217336a24.572224 24.572224 0 0 0-17.34257-12.465804l-250.809925-44.002496z"  horiz-adv-x="1024" />

    
    <glyph glyph-name="good" unicode="&#59033;" d="M223.825428 515.016366H114.787784c-20.325148 0-36.859872-16.534724-36.859872-36.859872V-22.496808c0-20.325148 16.534724-36.859872 36.859872-36.859872H816.036604c19.436415 0 35.406978 15.120738 36.765674 34.217224l82.673621 480.800166c0.235494 1.376102 0.355288 2.768586 0.355288 4.164142 0 20.325148-16.534724 36.859872-36.859872 36.859871H582.243653a350.71144 350.71144 0 0 1 43.020589 72.181868c19.999552 45.054026 30.141136 93.083463 30.141137 142.753164v0.122866c-0.005119 1.030029-0.151535 25.450718-2.348793 43.389188a24.694066 24.694066 0 0 1-0.329691 1.969956c-5.895532 42.644824-42.284416 74.522469-85.623435 74.522469-47.376198 0-86.331963-37.787512-87.299534-84.62105-3.938887-62.254276-31.197786-120.17854-76.75454-163.101861-45.749244-43.104548-105.579983-68.658678-168.470091-68.658678M211.538804-10.210184H127.074408V465.869871h84.463372V-10.210184h0.001024z m593.963044 0H260.685299v479.28072c65.798967 5.782904 127.535156 33.333611 176.067321 79.059305 54.66319 51.50348 87.371206 121.029389 92.100532 195.768922l-20.408082 1.29112 20.408082-1.29112c0 20.560641 17.370215 38.577951 38.250308 38.577952 19.048363 0 34.993329-14.241221 37.09127-33.126786l0.060409 0.007167c0.008191-0.067576 0.011263-0.134129 0.019454-0.201705 1.797943-14.676372 1.976099-36.307998 1.98429-37.601165-0.009215-42.734926-8.726575-84.032316-25.914538-122.749516-16.617659-37.435295-40.295007-70.655255-70.373686-98.734286-0.020478-0.019454-0.037884-0.040955-0.057337-0.059385a24.579391 24.579391 0 0 1-1.614667-1.667909l-0.161774-0.186348a24.692018 24.692018 0 0 1-2.667222-3.745372l-0.149487-0.260067a24.712496 24.712496 0 0 1-0.967571-1.909546l-0.093174-0.204777a23.989633 23.989633 0 0 1-0.797607-2.05289l-0.047098-0.140273c-0.233446-0.704433-0.435151-1.423201-0.605117-2.154254l-0.028668-0.12389a24.291679 24.291679 0 0 1-0.414674-2.359032 24.8927 24.8927 0 0 1-0.177132-2.155279l-0.006143-0.244708c-0.006143-0.232422-0.017406-0.462796-0.017407-0.696242 0-0.488393 0.01843-0.971667 0.046075-1.452894 0.003072-0.059385 0.009215-0.119795 0.013311-0.17918 0.049146-0.749484 0.127986-1.489753 0.242661-2.218759l0.007167-0.039932a24.370519 24.370519 0 0 1 2.116371-6.766858l0.029692-0.058361a24.665397 24.665397 0 0 1 1.120131-2.05289c0.025597-0.041979 0.054266-0.082935 0.079863-0.124914 0.403411-0.652215 0.834467-1.284976 1.295215-1.895212 0.038908-0.052218 0.080887-0.102389 0.120818-0.153583a24.767786 24.767786 0 0 1 1.474395-1.747772c0.022525-0.024573 0.041979-0.052218 0.064505-0.076791 0.088054-0.094197 0.181228-0.182252 0.270306-0.274402 0.157678-0.163822 0.317404-0.327643 0.479178-0.487369 0.150511-0.148463 0.304094-0.292831 0.457677-0.437199a25.054474 25.054474 0 0 1 1.949478-1.641288c0.097269-0.07372 0.196586-0.145392 0.295902-0.218088 0.23447-0.172013 0.468939-0.340954 0.708529-0.503751 0.078839-0.053242 0.159726-0.10546 0.239589-0.157679 0.260067-0.172013 0.520134-0.341978 0.784296-0.502728 0.063481-0.038908 0.127986-0.074744 0.191467-0.112627 0.282592-0.168941 0.566209-0.334811 0.85392-0.490441 0.053242-0.028669 0.108532-0.05529 0.162798-0.083959 0.298975-0.159726 0.599997-0.316381 0.904091-0.462796 0.063481-0.030717 0.130033-0.058361 0.194538-0.088054 0.297951-0.140272 0.595901-0.278497 0.897947-0.405458 0.150511-0.063481 0.304094-0.119795 0.455629-0.180204 0.220135-0.088054 0.439247-0.17918 0.66143-0.261091a24.327515 24.327515 0 0 1 3.558002-1.004432l0.125938-0.022525c0.356312-0.069624 0.713648-0.135153 1.076103-0.189419 0.184299-0.027645 0.368599-0.047099 0.553922-0.070648 0.218088-0.027645 0.434127-0.059385 0.654263-0.081911 0.829347-0.083959 1.661766-0.126962 2.495208-0.126962l0.044028 0.002048h357.421984L805.501848-10.210184z"  horiz-adv-x="1024" />

    
    <glyph glyph-name="account" unicode="&#59043;" d="M944.02227-24.429904C886.277185 134.094165 771.601005 249.265906 635.487737 293.474203c27.283472 13.498904 52.477195 31.503928 74.632025 53.658758 53.344425 53.344425 82.721743 124.267938 82.721743 199.707809 0 75.439871-29.377318 146.364407-82.721743 199.707809s-124.268962 82.721743-199.708833 82.721743-146.364407-29.377318-199.707809-82.721743S227.981378 622.280641 227.981378 546.841794c0-75.439871 29.377318-146.364407 82.721743-199.707809 22.186571-22.186571 47.422273-40.211048 74.75182-53.71712-136.034428-44.252324-250.634841-159.392324-308.354328-317.846769-2.745037-7.533748-1.640264-15.933703 2.958005-22.502952 4.598269-6.568224 12.112563-10.48049 20.131633-10.48049l820.743405 0c8.018046 0 15.53234 3.912266 20.130609 10.48049C945.662534-40.363607 946.766282-31.964676 944.02227-24.429904zM277.127874 546.841794c0 62.311613 24.266082 120.89526 68.326939 164.956117 44.060857 44.061881 102.644504 68.326939 164.956117 68.326939s120.89526-24.266082 164.956117-68.326939c44.061881-44.060857 68.326939-102.644504 68.326939-164.956117 0-62.312637-24.265058-120.89526-68.326939-164.956117-44.060857-44.061881-102.64348-68.326939-164.956117-68.326939-62.311613 0-120.89526 24.265058-164.956117 68.326939C301.393956 425.946534 277.127874 484.529157 277.127874 546.841794zM136.475723-8.26685c33.140096 75.787992 81.511511 140.31734 141.237813 188.041659 69.148095 55.252948 149.665413 84.457229 232.847905 84.457229 83.181468 0 163.698786-29.204281 232.846881-84.457229 59.727327-47.724319 108.098741-112.254691 141.238837-188.041659L136.475723-8.26685z"  horiz-adv-x="1025" />

    
    <glyph glyph-name="down" unicode="&#59048;" d="M467.985218-41.525717c0.122866-0.124914 0.24778-0.248804 0.372694-0.370646 11.174684-10.873662 25.852081-16.831651 41.412066-16.831651 0.277473 0 0.554946 0.001024 0.832419 0.005119 15.837458 0.217064 30.643864 6.574368 41.702849 17.905707l334.741901 339.769178c9.525205 9.667525 9.408482 25.226487-0.259043 34.750668-9.666501 9.524181-25.227511 9.408482-34.750668-0.259043l-315.80719-320.551874L536.230246 807.524021c0 13.5716-11.001648 24.573248-24.573248 24.573248-13.5716 0-24.573248-11.001648-24.573248-24.573248l0-798.397108L166.360888 334.867839c-9.52111 9.670597-25.080071 9.791415-34.750668 0.269282-9.670597-9.52111-9.791415-25.080071-0.270306-34.750668L467.985218-41.525717z"  horiz-adv-x="1025" />

    
    <glyph glyph-name="icon-sidebar-fold" unicode="&#58944;" d="M990.211 310.74h-406.692c-15.256 0-26.314-6.86-31.024-19.044-8.191-20.376 6.86-41.365 30.103-41.365 54.881-0.205 187.783 0 242.869 0h164.745c20.376 0 34.096 12.389 34.096 30.307 0 17.713-13.925 30.103-34.096 30.103zM992.259 493.608c-55.188 0.205-110.479 0-165.667 0h-243.892c-14.642 0-25.495-6.86-30.307-18.84-8.191-20.58 6.451-41.57 29.693-41.673 35.632-0.205 71.058 0 106.69 0h301.947c15.666 0 26.826 7.065 31.638 19.761 7.577 20.376-7.065 40.751-30.103 40.751zM392.665 260.262c13.106-12.901 31.024-13.311 43.413-1.331 6.655 6.451 9.727 14.642 9.113 23.038v184.609c-0.41 6.655-3.276 12.901-8.601 18.328-12.799 12.901-31.024 12.184-45.563-2.048-29.488-29.283-58.874-58.669-88.362-87.953-13.106-13.106-13.515-31.024-0.614-44.028 30.205-30.819 60.308-60.717 90.615-90.615zM981.611 127.872h-652.428c-4.198 0-8.396 0.205-12.389-0.717-15.051-3.276-25.188-17.304-23.652-32.355 1.741-16.587 14.642-27.44 33.174-27.44h655.192c20.58 0 33.891 12.184 34.096 30.307 0.307 18.021-13.618 30.205-33.993 30.205zM324.678 615.862h665.533c13.925 0 24.983 4.812 31.024 17.713 10.137 21.092-5.324 43.004-30.307 43.004h-543.792c-40.956 0-81.912 0.205-122.868-0.205-18.123-0.205-31.229-13.311-31.229-30.307 0.205-16.894 13.515-29.591 31.638-30.205z"  horiz-adv-x="1024" />

    
    <glyph glyph-name="icon-sidebar-unfold" unicode="&#58945;" d="M33.789 457.26h406.692c15.257 0 26.314 6.86 31.024 19.044 8.191 20.376-6.86 41.365-30.104 41.365-54.881 0.205-187.784 0-242.869 0h-164.745c-20.376 0-34.096-12.389-34.096-30.307 0-17.713 13.924-30.103 34.096-30.104zM31.741 274.392c55.188-0.205 110.478 0 165.667 0h243.892c14.641 0 25.495 6.86 30.307 18.84 8.191 20.58-6.451 41.57-29.693 41.673-35.633 0.205-71.059 0-106.69 0h-301.947c-15.667 0-26.826-7.065-31.638-19.762-7.577-20.376 7.065-40.751 30.103-40.751zM631.336 507.738c-13.106 12.901-31.024 13.311-43.413 1.331-6.655-6.451-9.727-14.641-9.113-23.038v-184.609c0.41-6.655 3.276-12.901 8.601-18.328 12.799-12.901 31.024-12.184 45.563 2.048 29.488 29.283 58.874 58.669 88.362 87.953 13.106 13.106 13.515 31.024 0.614 44.028-30.205 30.819-60.308 60.717-90.615 90.615zM42.389 640.128h652.428c4.197 0 8.396-0.205 12.389 0.717 15.051 3.276 25.188 17.304 23.652 32.355-1.741 16.587-14.641 27.44-33.175 27.44h-655.192c-20.58 0-33.891-12.184-34.096-30.307-0.307-18.021 13.618-30.205 33.993-30.205zM699.322 152.138h-665.533c-13.924 0-24.983-4.812-31.024-17.713-10.137-21.092 5.324-43.004 30.307-43.004h543.792c40.956 0 81.912-0.204 122.868 0.205 18.123 0.205 31.229 13.311 31.229 30.307-0.205 16.894-13.516 29.591-31.638 30.205z"  horiz-adv-x="1024" />

    
    <glyph glyph-name="note" unicode="&#59122;" d="M1016.76032 495.54432c0-11.06944-4.21888-20.79744-12.60544-29.184l-30.88384-32.0512-199.168-198.00064v-246.0672c-0.77824-9.9328-6.11328-15.2576-16.01536-16.03584h-690.176c-9.92256 0.77824-15.26784 6.11328-16.01536 16.03584V109.25056c-12.98432 0.75776-23.66464 5.33504-32.0512 13.74208C11.43808 131.3792 7.26016 142.04928 7.26016 155.0336c0 12.97408 4.18816 23.66464 12.58496 32.07168 8.38656 8.36608 19.06688 12.96384 32.0512 13.7216v88.13568c-12.98432 1.50528-23.66464 6.4512-32.0512 14.85824-8.40704 8.38656-12.58496 18.8928-12.58496 31.47776 0 12.5952 4.18816 23.26528 12.58496 32.0512 8.38656 8.76544 19.06688 13.54752 32.0512 14.30528v88.12544c-12.98432 1.52576-23.66464 6.47168-32.0512 14.87872-8.40704 8.38656-12.58496 18.88256-12.58496 31.47776 0 12.58496 4.18816 23.07072 12.58496 31.47776 8.38656 8.38656 19.06688 13.33248 32.0512 14.87872v88.12544c-12.98432 0.75776-23.66464 5.5296-32.0512 14.30528-8.40704 8.76544-12.58496 19.456-12.58496 32.0512 0 12.58496 4.18816 23.06048 12.58496 31.46752 8.38656 8.38656 19.06688 12.97408 32.0512 13.73184V797.1328c0 4.57728 1.51552 8.58112 4.56704 12.01152a14.68416 14.68416 0 0 0 11.44832 5.15072h690.176c4.56704 0 8.38656-1.72032 11.44832-5.15072 3.03104-3.4304 4.56704-7.44448 4.56704-12.01152v-320.47104l109.86496 109.86496c8.38656 8.3968 18.31936 12.5952 29.76768 12.5952 11.43808 0 21.3504-4.1984 29.75744-12.5952l60.65152-61.7984c8.3968-8.40704 12.61568-18.13504 12.61568-29.184z m-141.93664-46.35648l-8.00768 8.01792-193.4336-193.4336 8.00768-9.15456 193.4336 194.57024zM625.3056 264.91904L612.73088 219.136l25.16992-24.05376 44.62592 12.5952-57.22112 57.2416zM833.62816 490.3936l-193.45408-194.56 9.17504-9.17504 194.57024 194.57024-10.2912 9.1648zM83.93728 743.34208h38.912V781.1072h-38.912v-37.76512zM44.4416 686.68416c2.67264-2.68288 5.90848-4.00384 9.73824-4.00384h98.42688c8.38656 0.74752 12.58496 5.33504 12.58496 13.73184 0 8.38656-4.20864 12.96384-12.58496 13.7216H54.17984c-8.40704-0.75776-12.98432-5.33504-13.74208-13.7216 0-3.82976 1.32096-7.0656 4.00384-9.728z m39.49568-36.05504v-88.12544h38.912v88.12544h-38.912zM54.17984 502.97856h98.42688c8.38656 0.74752 12.58496 5.15072 12.58496 13.16864 0 8.00768-4.20864 12.3904-12.58496 13.1584H54.17984c-8.40704-0.768-12.98432-5.34528-13.74208-13.74208 0.74752-7.6288 5.33504-11.83744 13.74208-12.58496z m29.75744-33.19808v-88.12544h38.912v88.12544h-38.912zM54.17984 322.14016h98.42688c8.38656 0.74752 12.97408 5.33504 13.73184 13.74208 0 3.79904-1.34144 7.04512-4.00384 9.71776a13.33248 13.33248 0 0 1-9.728 4.00384H54.17984c-3.82976 0-7.0656-1.34144-9.73824-4.00384a13.2096 13.2096 0 0 1-4.00384-9.71776c0.74752-8.40704 5.33504-12.99456 13.74208-13.74208z m29.75744-33.1776v-86.99904h38.912v86.99904h-38.912zM152.60672 141.312c3.80928 0 7.04512 1.32096 9.728 4.00384 2.6624 2.65216 4.00384 5.90848 4.00384 9.71776 0 3.81952-1.34144 7.05536-4.00384 9.728a13.35296 13.35296 0 0 1-9.728 4.02432H54.17984c-8.40704-0.77824-12.5952-5.35552-12.5952-13.75232 0-8.40704 4.18816-12.98432 12.5952-13.7216h98.42688z m588.29824-99.584H138.87488c-9.9328 0.73728-15.27808 6.0928-16.0256 16.01536v50.36032h-38.912v-101.87776h656.96768v35.50208z m0 161.37216l-14.85824-16.00512-5.74464-2.304c-0.77824 0-1.536-0.77824-2.29376-2.304l-138.47552-37.75488c-4.59776 0-8.40704 1.87392-11.44832 5.71392-4.56704 4.56704-6.11328 9.91232-4.56704 16.01536l37.76512 133.89824 3.42016 8.02816 136.20224 136.20224V781.1072H154.89024v-38.912c12.96384-0.768 23.6544-5.34528 32.0512-13.73184 8.37632-8.40704 12.58496-18.88256 12.58496-31.46752 0-12.5952-4.20864-23.28576-12.58496-32.0512-8.40704-8.77568-19.08736-13.54752-32.0512-14.30528v-88.12544c12.96384-0.768 23.6544-5.55008 32.0512-14.30528 8.37632-8.77568 12.58496-19.456 12.58496-32.04096 0-12.5952-4.20864-23.28576-12.58496-32.0512-8.40704-8.77568-19.08736-13.55776-32.0512-14.30528v-88.12544c12.96384-0.768 23.6544-5.55008 32.0512-14.30528 8.37632-8.77568 12.58496-19.44576 12.58496-32.0512 0-12.58496-4.20864-23.0912-12.58496-31.47776-8.40704-8.40704-19.08736-13.35296-32.0512-14.85824v-88.13568c12.96384-0.75776 23.6544-5.34528 32.0512-13.7216 8.37632-8.40704 12.58496-19.0976 12.58496-32.07168 0-12.98432-4.20864-23.6544-12.58496-32.04096-8.40704-8.40704-19.08736-12.98432-32.0512-13.74208v-34.34496h586.01472V203.10016z m167.1168 212.89984l-9.17504 10.30144-194.57024-194.58048 10.31168-9.15456 193.4336 193.4336z m29.7472 30.89408l-73.23648 73.25696-6.89152-6.8608 74.41408-73.25696 5.71392 6.8608z m45.78304 48.65024c0 2.67264-0.77824 4.7616-2.29376 6.2976l-61.78816 60.66176c-1.55648 1.52576-3.6352 2.46784-6.28736 2.85696a6.06208 6.06208 0 0 1-6.31808-2.85696l-19.42528-18.31936 74.3936-74.3936 19.43552 19.456c1.50528 1.51552 2.28352 3.60448 2.28352 6.2976z"  horiz-adv-x="1024" />

    
    <glyph glyph-name="order_fill" unicode="&#59155;" d="M640 416.032h-256a32 32 0 0 0 0 64h256a32 32 0 0 0 0-64m0-160h-256a32 32 0 0 0 0 64h256a32 32 0 0 0 0-64M800.256 768H223.744A64 64 0 0 1 160 703.936v-639.84A64 64 0 0 1 223.744 0h576.512A64 64 0 0 1 864 64.096V703.936A64 64 0 0 1 800.256 768"  horiz-adv-x="1024" />

    
    <glyph glyph-name="stealth_fill" unicode="&#59180;" d="M645.568 486.4h-256a32 32 0 0 0 0 64h256a32 32 0 1 0 0-64m0-128h-256a32 32 0 0 0 0 64h256a32 32 0 1 0 0-64m0-128h-256a32 32 0 0 0 0 64h256a32 32 0 1 0 0-64M512 768C300.288 768 128 595.744 128 384c0-211.712 172.288-384 384-384 211.744 0 384 172.288 384 384 0 211.744-172.256 384-384 384"  horiz-adv-x="1024" />

    
    <glyph glyph-name="true1" unicode="&#58889;" d="M511.999488-64.227558c-247.298316 0-448.227558 200.929242-448.227557 448.227558S264.701173 832.227558 511.999488 832.227558 960.227046 631.298316 960.227046 384 759.297804-64.227558 511.999488-64.227558z m0 880.999099c-239.570307 0-432.771541-193.201234-432.771541-432.771541s193.201234-432.771541 432.771541-432.771541S944.771029 144.429693 944.771029 384 751.569796 816.771541 511.999488 816.771541z m-27.821649-612.062973l-21.638832-21.638833-21.638833 21.638833-153.014976 153.015999c-12.364609 12.364609-12.364609 30.912034 0 43.276642 12.364609 12.364609 30.912034 12.364609 43.276642 0l131.377167-131.377166 284.393165 284.393165 43.277666-43.276642-306.031999-306.031998z"  horiz-adv-x="1024" />

    
    <glyph glyph-name="view" unicode="&#58912;" d="M426.666667 85.333333c-214.144 0-426.666667 266.666667-426.666667 320 0 53.504 213.504 320 426.666667 320 212.522667 0 426.666667-266.666667 426.666666-320 0-52.992-213.077333-320-426.666666-320z m0 586.666667c-186.538667 0-373.333333-222.08-373.333334-266.666667 0-44.501333 185.941333-266.666667 373.333334-266.666666 186.837333 0 373.333333 222.506667 373.333333 266.666666 0 44.458667-187.434667 266.666667-373.333333 266.666667z m0-400a133.333333 133.333333 0 1 0 0 266.666667 133.333333 133.333333 0 0 0 0-266.666667z m0 213.333333a80.042667 80.042667 0 1 1 0.042666-160.042666A80.042667 80.042667 0 0 1 426.666667 485.333333z"  horiz-adv-x="1024" />

    
    <glyph glyph-name="true3" unicode="&#59002;" d="M512 384m-440 0a440 440 0 1 1 880 0 440 440 0 1 1-880 0ZM812.7 522.8l-92.5 92.5-277.6-277.6-138.8 138.8-92.5-92.5 185-185 46.3-46.3z"  horiz-adv-x="1024" />

    
    <glyph glyph-name="ic_song_downx" unicode="&#58902;" d="M815.786667-93.866667h-614.4c-92.16 0-150.186667 116.053333-150.186667 228.693334 0 10.24 6.826667 17.066667 17.066667 17.066666s17.066667-6.826667 17.066666-17.066666C85.333333 42.666667 129.706667-59.733333 201.386667-59.733333H819.2c78.506667 0 122.88 98.986667 122.88 194.56 0 10.24 6.826667 17.066667 17.066667 17.066666s17.066667-6.826667 17.066666-17.066666c-3.413333-109.226667-58.026667-228.693333-160.426666-228.693334zM197.973333 445.44c-6.826667 6.826667-20.48 6.826667-27.306666 0s-6.826667-20.48 0-27.306667l341.333333-341.333333 351.573333 341.333333c6.826667 6.826667 6.826667 20.48 0 27.306667-6.826667 6.826667-20.48 6.826667-27.306666 0L512 131.413333l-314.026667 314.026667zM491.52 773.12v-641.706667c0-10.24 10.24-20.48 20.48-20.48s20.48 10.24 20.48 20.48V773.12c0 10.24-10.24 20.48-20.48 20.48s-20.48-6.826667-20.48-20.48z"  horiz-adv-x="1024" />

    
    <glyph glyph-name="ic_song_previous" unicode="&#58904;" d="M512-114.346667C235.52-114.346667 13.653333 107.52 13.653333 384S235.52 882.346667 512 882.346667c273.066667 0 498.346667-221.866667 498.346667-498.346667S785.066667-114.346667 512-114.346667z m0 962.56C256 848.213333 47.786667 640 47.786667 384S256-80.213333 512-80.213333 976.213333 128 976.213333 384 768 848.213333 512 848.213333zM402.773333 384l307.2 187.733333v-375.466666zM317.44 578.56h34.133333v-385.706667h-34.133333z"  horiz-adv-x="1024" />

    
    <glyph glyph-name="ic_song_next" unicode="&#58905;" d="M512-114.346667C235.52-114.346667 13.653333 107.52 13.653333 384S235.52 882.346667 512 882.346667c273.066667 0 498.346667-221.866667 498.346667-498.346667S785.066667-114.346667 512-114.346667z m0 962.56C256 848.213333 47.786667 640 47.786667 384S256-80.213333 512-80.213333 976.213333 128 976.213333 384 768 848.213333 512 848.213333zM621.226667 384l-307.2 187.733333v-375.466666zM706.56 578.56h-34.133333v-385.706667h34.133333z"  horiz-adv-x="1024" />

    
    <glyph glyph-name="ic_song_playx" unicode="&#58906;" d="M512-117.76C235.52-117.76 10.24 107.52 10.24 384S235.52 885.76 512 885.76s501.76-225.28 501.76-501.76-225.28-501.76-501.76-501.76z m0 983.04C245.76 865.28 30.72 650.24 30.72 384S245.76-97.28 512-97.28 993.28 117.76 993.28 384 778.24 865.28 512 865.28zM401.408 545.792c0 22.528 16.384 30.72 34.816 18.432L692.224 404.48c18.432-12.288 18.432-30.72 0-43.008l-256-151.552c-18.432-12.288-34.816-2.048-34.816 20.48V545.792z"  horiz-adv-x="1024" />

    
    <glyph glyph-name="ic_song_suspend-copy" unicode="&#58907;" d="M512-117.76c-276.48 0-501.76 225.28-501.76 501.76s225.28 501.76 501.76 501.76 501.76-225.28 501.76-501.76-225.28-501.76-501.76-501.76zM512 865.28c-266.24 0-481.28-215.040-481.28-481.28s215.040-481.28 481.28-481.28 481.28 215.040 481.28 481.28-215.040 481.28-481.28 481.28zM423.936 562.176c16.384 0 28.672-12.288 28.672-28.672v-294.912c0-16.384-12.288-28.672-28.672-28.672s-28.672 12.288-28.672 28.672v292.864c-2.048 16.384 12.288 30.72 28.672 30.72zM600.064 562.176c16.384 0 28.672-12.288 28.672-28.672v-294.912c0-16.384-12.288-28.672-28.672-28.672s-28.672 12.288-28.672 28.672v292.864c0 16.384 12.288 30.72 28.672 30.72z"  horiz-adv-x="1024" />

    
    <glyph glyph-name="articlex" unicode="&#58890;" d="M512 896C230.4 896 0 665.6 0 384s230.4-512 512-512 512 230.4 512 512-230.4 512-512 512z m256-256c12.8-12.8 12.8-32 0-44.8L505.6 326.4c-12.8-6.4-38.4-6.4-51.2 0-6.4 12.8-6.4 38.4 0 51.2L723.2 640c12.8 12.8 32 12.8 44.8 0z m12.8-448c0-57.6-44.8-96-102.4-96H320c-57.6 0-102.4 44.8-102.4 96V588.8c0 57.6 44.8 96 102.4 96h288c19.2 0 32-12.8 32-32 0-12.8-12.8-25.6-32-25.6H320c-19.2 0-38.4-19.2-38.4-32V192c0-19.2 19.2-32 38.4-32h358.4c25.6 0 38.4 19.2 38.4 32V422.4c0 19.2 12.8 32 32 32s32-12.8 32-32V192z"  horiz-adv-x="1024" />

    
    <glyph glyph-name="fenxiang" unicode="&#58916;" d="M972.8 346.0864v-294.7584A128.0768 128.0768 0 0 0 844.8-76.8H179.2a128 128 0 0 0-128 128V716.8c0 70.7328 57.1904 128 127.872 128h202.3168a25.6 25.6 0 0 1 0 51.2H179.072A179.072 179.072 0 0 1 0 716.8v-665.6a179.2 179.2 0 0 1 179.2-179.2h665.6c98.944 0 179.2 80.2816 179.2 179.328V346.0864a25.6 25.6 0 0 1-51.2 0zM960 768c-353.4592 0-640-286.5408-640-640a25.6 25.6 0 0 1 51.2 0c0 325.1968 263.6032 588.8 588.8 588.8a25.6 25.6 0 0 1 0 51.2zM720.1024 833.8432l256-102.4a25.6 25.6 0 0 1 18.9952 47.5136l-256 102.4a25.6 25.6 0 0 1-18.9952-47.5136zM808.8064 547.5328l194.6368 189.312a25.6 25.6 0 1 1-35.6864 36.7104L773.12 584.2432a25.6 25.6 0 1 1 35.6864-36.7104z"  horiz-adv-x="1024" />

    
    <glyph glyph-name="fanhui" unicode="&#58918;" d="M710.153924 887.019603L266.007127 435.307476a81.118646 81.118646 0 0 1 0.861532-114.476097l446.192936-441.050666a26.922883 26.922883 0 0 1 37.853573 38.284339L304.722232 359.115718a27.27288 27.27288 0 0 0-0.323074 38.445877L748.545955 849.273722A26.922883 26.922883 0 1 1 710.180847 886.99268z"  horiz-adv-x="1024" />

    
    <glyph glyph-name="bofang" unicode="&#58917;" d="M512 896C230.4 896 0 665.6 0 384s230.4-512 512-512 512 230.4 512 512S793.6 896 512 896z m0-981.333333C253.866667-85.333333 42.666667 125.866667 42.666667 384S253.866667 853.333333 512 853.333333s469.333333-211.2 469.333333-469.333333-211.2-469.333333-469.333333-469.333333zM672 454.4l-170.666667 113.066667c-57.6 38.4-106.666667 12.8-106.666666-57.6v-256c0-70.4 46.933333-96 106.666666-57.6l170.666667 113.066666c57.6 42.666667 57.6 106.666667 0 145.066667z"  horiz-adv-x="1024" />

    
    <glyph glyph-name="duigou" unicode="&#58920;" d="M512 896C228.430769 896 0 667.569231 0 384s228.430769-512 512-512 512 228.430769 512 512S795.569231 896 512 896z m0-945.230769C271.753846-49.230769 78.769231 143.753846 78.769231 384S271.753846 817.230769 512 817.230769s433.230769-192.984615 433.230769-433.230769-192.984615-433.230769-433.230769-433.230769zM716.8 565.169231l-208.738462-248.123077c-15.753846-15.753846-43.323077-19.692308-59.076923-7.876923L299.323077 423.384615c-15.753846 11.815385-43.323077 7.876923-55.138462-7.876923-11.815385-15.753846-7.876923-43.323077 7.876923-55.138461l149.661539-114.215385c19.692308-15.753846 47.261538-23.630769 74.830769-23.630769 35.446154 0 70.892308 15.753846 94.523077 43.323077l208.738462 248.123077c15.753846 15.753846 11.815385 43.323077-3.938462 55.138461-19.692308 15.753846-43.323077 15.753846-59.076923-3.938461z"  horiz-adv-x="1024" />

    
    <glyph glyph-name="shuoming" unicode="&#58921;" d="M481.834667 350.165333A42.538667 42.538667 0 0 0 512 362.666667a128 128 0 1 1-128 128 42.666667 42.666667 0 0 0-85.333333 0 213.333333 213.333333 0 1 0 256-209.066667v-46.933333a42.666667 42.666667 0 0 0-85.333334 0v85.333333c0 11.776 4.778667 22.442667 12.501334 30.165333zM512-128C229.248-128 0 101.248 0 384S229.248 896 512 896s512-229.248 512-512-229.248-512-512-512z m0 85.333333c235.648 0 426.666667 191.018667 426.666667 426.666667S747.648 810.666667 512 810.666667 85.333333 619.648 85.333333 384s191.018667-426.666667 426.666667-426.666667z m0 106.666667a42.666667 42.666667 0 1 0 0 85.333333 42.666667 42.666667 0 0 0 0-85.333333z"  horiz-adv-x="1024" />

    
    <glyph glyph-name="shoucang" unicode="&#58919;" d="M142.31918 355.732873l350.13559-373.653781c54.296613-63.852817 139.806023-63.883844 195.033436 1.054906l362.204951 388.670672c42.661625 48.866952 65.466202 112.130263 65.466203 182.902021a279.239726 279.239726 0 0 1-501.018122 169.653647 30.99561 30.99561 0 0 0-25.534922-12.131415 30.99561 30.99561 0 0 0-25.503895 12.131415A279.239726 279.239726 0 0 1 62.053272 554.706691c0-72.850542 28.792718-144.242832 77.411458-195.498835 1.054906-1.116959 1.985705-2.264944 2.85445-3.474983z m-54.606879-31.926409A349.732244 349.732244 0 0 0 0 554.706691C0 743.193506 152.806184 895.99969 341.292999 895.99969c95.065613 0 183.708713-39.155615 247.313317-106.111096A340.486306 340.486306 0 0 0 835.95066 895.99969c188.486815 0 341.292999-152.806184 341.292999-341.292999 0-80.793361-25.069522-154.636755-72.198982-213.463257-1.147986-1.923651-2.482131-3.754223-4.095516-5.491715l-5.181449-5.553768c-2.699317-3.071637-5.491715-6.112247-8.315138-9.090804-0.620533-0.620533-1.210039-1.241065-1.861598-1.799545L733.810974-58.069375c-79.055869-93.048882-209.553901-93.017855-287.616918-1.147985L90.783938 319.959161a31.243823 31.243823 0 0 0-3.102664 3.847303z"  horiz-adv-x="1179" />

    
    <glyph glyph-name="jiantoushang" unicode="&#58924;" d="M910.222222 99.555556c-17.066667 0-34.133333 5.688889-45.511111 17.066666L551.822222 486.4c-11.377778 5.688889-17.066667 11.377778-34.133333 11.377778-5.688889 0-22.755556-5.688889-28.444445-11.377778l-329.955555-364.088889c-22.755556-22.755556-56.888889-22.755556-79.644445-5.688889-22.755556 22.755556-22.755556 56.888889-5.688888 79.644445l329.955555 364.088889c28.444444 34.133333 73.955556 51.2 119.466667 51.2s85.333333-22.755556 119.466666-56.888889l312.888889-364.088889c22.755556-22.755556 17.066667-56.888889-5.688889-79.644445-11.377778-5.688889-28.444444-11.377778-39.822222-11.377777z"  horiz-adv-x="1024" />

    
    <glyph glyph-name="jiantoushang1" unicode="&#58925;" d="M910.222222 99.555556c-17.066667 0-34.133333 5.688889-45.511111 17.066666L551.822222 486.4c-11.377778 5.688889-17.066667 11.377778-34.133333 11.377778-5.688889 0-22.755556-5.688889-28.444445-11.377778l-329.955555-364.088889c-22.755556-22.755556-56.888889-22.755556-79.644445-5.688889-22.755556 22.755556-22.755556 56.888889-5.688888 79.644445l329.955555 364.088889c28.444444 34.133333 73.955556 51.2 119.466667 51.2s85.333333-22.755556 119.466666-56.888889l312.888889-364.088889c22.755556-22.755556 17.066667-56.888889-5.688889-79.644445-11.377778-5.688889-28.444444-11.377778-39.822222-11.377777z"  horiz-adv-x="1024" />

    
    <glyph glyph-name="jiantouyou" unicode="&#58930;" d="M312.888889-99.555556c-17.066667 0-28.444444 5.688889-39.822222 17.066667-22.755556 22.755556-17.066667 56.888889 5.688889 79.644445l364.088888 329.955555c11.377778 11.377778 17.066667 22.755556 17.066667 34.133333 0 11.377778-5.688889 22.755556-17.066667 34.133334L273.066667 708.266667c-22.755556 22.755556-28.444444 56.888889-5.688889 79.644444 22.755556 22.755556 56.888889 28.444444 79.644444 5.688889l364.088889-312.888889c34.133333-28.444444 56.888889-73.955556 56.888889-119.466667s-17.066667-85.333333-51.2-119.466666l-364.088889-329.955556c-11.377778-5.688889-28.444444-11.377778-39.822222-11.377778z"  horiz-adv-x="1024" />

    
    <glyph glyph-name="jiantouxia" unicode="&#58931;" d="M517.688889 99.555556c-45.511111 0-85.333333 17.066667-119.466667 51.2L73.955556 514.844444c-22.755556 22.755556-17.066667 56.888889 5.688888 79.644445 22.755556 22.755556 56.888889 17.066667 79.644445-5.688889l329.955555-364.088889c5.688889-5.688889 17.066667-11.377778 28.444445-11.377778s22.755556 5.688889 34.133333 17.066667l312.888889 364.088889c22.755556 22.755556 56.888889 28.444444 79.644445 5.688889 22.755556-22.755556 28.444444-56.888889 5.688888-79.644445L637.155556 156.444444c-28.444444-39.822222-68.266667-56.888889-119.466667-56.888888 5.688889 0 0 0 0 0z"  horiz-adv-x="1024" />

    
    <glyph glyph-name="saoyisao" unicode="&#58926;" d="M665.6 768a21.333333 21.333333 0 1 0 0 42.666667h123.648A149.482667 149.482667 0 0 0 938.666667 661.184v-133.504a21.333333 21.333333 0 1 0-42.666667 0v133.504A106.816 106.816 0 0 1 789.248 768h-123.669333zM896 220.032a21.333333 21.333333 0 1 0 42.666667 0v-113.258667A149.397333 149.397333 0 0 0 789.333333-42.666667H234.666667c-82.389333 0-149.333333 66.986667-149.333334 149.205334v122.752a21.333333 21.333333 0 0 0 42.666667 0v-122.752A106.773333 106.773333 0 0 1 234.666667 0h554.666666c58.88 0 106.666667 47.808 106.666667 106.773333v113.28zM128 532.949333a21.333333 21.333333 0 1 0-42.666667 0v128.213334C85.333333 743.701333 152.170667 810.666667 234.624 810.666667h128.725333a21.333333 21.333333 0 0 0 0-42.666667h-128.725333A106.730667 106.730667 0 0 1 128 661.141333v-128.192zM106.666667 362.666667a21.333333 21.333333 0 0 0 0 42.666666h810.666666a21.333333 21.333333 0 0 0 0-42.666666H106.666667z"  horiz-adv-x="1024" />

    
    <glyph glyph-name="shouye" unicode="&#58927;" d="M362.666667 0.085333V256.149333c0 36.266667 33.109333 63.850667 72.533333 63.850667h153.6c39.253333 0 72.533333-27.648 72.533333-63.850667v-256.064h59.904c61.269333 0 110.762667 47.957333 110.762667 106.730667V481.834667L557.162667 756.672a63.808 63.808 0 0 1-90.325334 0L192 481.834667v-375.018667c0-58.88 49.386667-106.730667 110.762667-106.730667H362.666667z m42.666666 0h213.333334V256.149333c0 10.709333-12.586667 21.184-29.866667 21.184h-153.6c-17.408 0-29.866667-10.389333-29.866667-21.184v-256.064z m469.333334 439.082667v-332.352c0-82.645333-68.885333-149.397333-153.429334-149.397333H302.762667C218.133333-42.581333 149.333333 24.064 149.333333 106.816V439.168l-27.584-27.584a21.333333 21.333333 0 1 0-30.165333 30.165333L436.672 786.837333a106.474667 106.474667 0 0 0 150.656 0l345.088-345.088a21.333333 21.333333 0 0 0-30.165333-30.165333L874.666667 439.168z"  horiz-adv-x="1024" />

    
    <glyph glyph-name="fenlei" unicode="&#58928;" d="M575.68 160a160.32 160.32 0 1 1 160.32 160.32H599.893333c-13.461333 0-24.192-10.752-24.192-24.192V160zM736 362.666667A202.666667 202.666667 0 1 0 533.333333 160V296.106667A66.432 66.432 0 0 0 599.872 362.666667H736zM490.666667 160a202.666667 202.666667 0 1 0-202.666667 202.666667h136.128A66.432 66.432 0 0 0 490.666667 296.128V160z m-202.666667 160.32a160.32 160.32 0 1 1 160.32-160.32V296.106667c0 13.44-10.730667 24.192-24.192 24.192H288zM533.333333 608.021333A202.666667 202.666667 0 1 0 736 405.333333H599.893333A66.432 66.432 0 0 0 533.333333 471.872V608z m202.666667-160.341333a160.32 160.32 0 1 1-160.32 160.32v-136.128c0-13.44 10.730667-24.192 24.192-24.192H736zM448.32 608a160.32 160.32 0 1 1-160.32-160.32h136.128c13.461333 0 24.192 10.752 24.192 24.192V608zM288 405.333333A202.666667 202.666667 0 1 0 490.666667 608v-136.128A66.432 66.432 0 0 0 424.128 405.333333H288z"  horiz-adv-x="1024" />

    
    <glyph glyph-name="zhiding" unicode="&#58933;" d="M511.5648 537.6a12.7616 12.7616 0 0 1-9.6-3.8784L355.584 383.0912a12.8 12.8 0 1 1 18.368-17.8432L499.2 494.144V166.4a12.8 12.8 0 0 1 25.6 0V495.488l120.768-126.8736a12.8 12.8 0 1 1 18.5472 17.6512l-140.288 147.3536a12.7744 12.7744 0 0 1-10.5472 3.9168 12.9536 12.9536 0 0 1-1.7152 0.0512zM512-128C229.2352-128 0 101.2352 0 384S229.2352 896 512 896s512-229.2352 512-512-229.2352-512-512-512zM320 576h384a12.8 12.8 0 0 1 0 25.6H320a12.8 12.8 0 0 1 0-25.6z"  horiz-adv-x="1024" />

    
    <glyph glyph-name="xuanzhong" unicode="&#58935;" d="M535.770344-121.621782c-51.025747 0-102.051494 19.134655-140.320804 63.782184L19.134655 356.744597C-6.378218 382.257471 0 420.526781 25.512874 446.039655s63.782184 19.134655 89.295057-6.378219l376.314885-414.584195c25.512874-25.512874 63.782184-25.512874 89.295057-6.378218l6.378218 6.378218L1326.669424 873.380286c25.512874 25.512874 63.782184 31.891092 89.295057 6.378219 25.512874-25.512874 31.891092-63.782184 6.378219-89.295058L676.091149-57.839598l-12.756437-12.756437c-38.26931-31.891092-82.916839-51.025747-127.564368-51.025747z"  horiz-adv-x="1466" />

    
    <glyph glyph-name="yigouxuan" unicode="&#58941;" d="M196.923077 896h630.153846a196.923077 196.923077 0 0 0 196.923077-196.923077v-630.153846a196.923077 196.923077 0 0 0-196.923077-196.923077H196.923077a196.923077 196.923077 0 0 0-196.923077 196.923077V699.076923a196.923077 196.923077 0 0 0 196.923077 196.923077z m0-78.769231a118.153846 118.153846 0 0 1-118.153846-118.153846v-630.153846a118.153846 118.153846 0 0 1 118.153846-118.153846h630.153846a118.153846 118.153846 0 0 1 118.153846 118.153846V699.076923a118.153846 118.153846 0 0 1-118.153846 118.153846H196.923077z m584.900923-258.205538a36.509538 36.509538 0 0 0 1.260308-51.633231l-299.480616-313.107692c-0.118154-0.157538-0.393846-0.236308-0.630154-0.472616l-0.393846-0.551384c-2.166154-2.126769-4.726154-3.229538-7.207384-4.726154-1.575385-0.866462-2.796308-2.166154-4.411077-2.835692a35.800615 35.800615 0 0 0-27.490462-0.07877c-1.260308 0.512-2.284308 1.614769-3.544615 2.284308-2.756923 1.457231-5.592615 2.835692-8.034462 5.12-0.196923 0.157538-0.275692 0.433231-0.512 0.669538-0.196923 0.118154-0.393846 0.196923-0.551384 0.354462l-150.843077 156.593231a36.430769 36.430769 0 0 0 0.945231 51.633231 36.391385 36.391385 0 0 0 51.63323-0.945231l124.455385-129.102769 273.092923 285.61723a36.548923 36.548923 0 0 0 51.712 1.181539z"  horiz-adv-x="1024" />

    
    <glyph glyph-name="sample" unicode="&#58911;" d="M128 896h768v-64H128zM896 832h64v-896h-64zM64 832h64v-896H64zM128-64h768v-64H128zM192 684.8h640v-64H192zM192 422.4h640v-64H192zM192 192h320v-64H192zM640 256h128v-64h-128zM640 64h128v-64h-128zM576 192h64v-128H576zM768 192h64v-128h-64z"  horiz-adv-x="1024" />

    
    <glyph glyph-name="dingyue" unicode="&#58943;" d="M704 490.666667v128a21.333333 21.333333 0 0 0 42.666667 0v-128h128a21.333333 21.333333 0 0 0 0-42.666667h-128v-128a21.333333 21.333333 0 0 0-42.666667 0v128h-128a21.333333 21.333333 0 0 0 0 42.666667h128z m149.333333-173.717334a21.333333 21.333333 0 0 0 42.666667 0V14.506667a64 64 0 0 0-98.794667-53.696l-273.088 176.96a21.333333 21.333333 0 0 1-23.189333 0l-274.197333-177.152A64 64 0 0 0 128 14.357333V661.333333a149.333333 149.333333 0 0 0 149.333333 149.333334h469.333334a149.333333 149.333333 0 0 0 149.333333-149.333334v-43.946666a21.333333 21.333333 0 0 0-42.666667 0V661.333333a106.666667 106.666667 0 0 1-106.666666 106.666667H277.333333a106.666667 106.666667 0 0 1-106.666666-106.666667v-646.976a21.333333 21.333333 0 0 1 32.917333-17.92l274.197333 177.173334a64 64 0 0 0 69.546667-0.064l273.066667-176.96A21.333333 21.333333 0 0 1 853.333333 14.506667V316.928z"  horiz-adv-x="1024" />

    
    <glyph glyph-name="changyonggoupiaorenshanchu" unicode="&#58949;" d="M96 576a32 32 0 1 0 0 64h832a32 32 0 0 0 0-64H96z m736 0h64v-448a160 160 0 0 0-160-160H288a160 160 0 0 0-160 160V576h64v-96H128v96h64v-448a96 96 0 0 1 96-96h448a96 96 0 0 1 96 96V576z m-512-112a32 32 0 0 0 64 0v-320a32 32 0 0 0-64 0v320z m320 0a32 32 0 0 0 64 0v-320a32 32 0 0 0-64 0v320zM288 640H224V704a96 96 0 0 0 96 96h384a96 96 0 0 0 96-96v-64h-64V672h64v-32h-64V704a32 32 0 0 1-32 32H320a32 32 0 0 1-32-32v-64z"  horiz-adv-x="1024" />

    
    <glyph glyph-name="tishishuoming" unicode="&#58956;" d="M512-128C229.248-128 0 101.248 0 384S229.248 896 512 896s512-229.248 512-512-229.248-512-512-512z m0 85.333333c235.648 0 426.666667 191.018667 426.666667 426.666667S747.648 810.666667 512 810.666667 85.333333 619.648 85.333333 384s191.018667-426.666667 426.666667-426.666667z m-42.666667 469.333334a42.666667 42.666667 0 0 0 85.333334 0v-298.666667a42.666667 42.666667 0 0 0-85.333334 0v298.666667z m38.4 136.533333a59.733333 59.733333 0 1 0 0 119.466667 59.733333 59.733333 0 0 0 0-119.466667z"  horiz-adv-x="1024" />

    


  </font>
</defs>
</svg>
